<?xml version="1.0" standalone="no"?>
<!DOCTYPE svg PUBLIC "-//W3C//DTD SVG 20010904//EN"
 "http://www.w3.org/TR/2001/REC-SVG-20010904/DTD/svg10.dtd">
<svg version="1.0" xmlns="http://www.w3.org/2000/svg"
 width="1600.000000pt" height="1200.000000pt" viewBox="0 0 1600.000000 1200.000000"
 preserveAspectRatio="xMidYMid meet">

<g transform="translate(0.000000,1200.000000) scale(0.100000,-0.100000)"
fill="#000000" stroke="none">
<path d="M7715 10995 c-329 -28 -651 -104 -969 -228 -158 -61 -462 -213 -606
-302 l-105 -65 1965 0 1965 0 -96 59 c-495 304 -1052 490 -1609 536 -206 17
-340 17 -545 0z"/>
<path d="M5334 9827 c-46 -48 -110 -122 -142 -165 -64 -83 -162 -227 -162
-236 0 -3 350 -6 778 -6 l778 0 85 34 c377 152 805 153 1185 2 l91 -36 1509 0
c830 0 1512 0 1517 0 20 0 -212 295 -329 417 l-69 72 -2579 3 -2578 3 -84 -88z"/>
<path d="M4776 9022 c-43 -68 -77 -142 -107 -234 -16 -50 -28 -92 -26 -94 2
-2 48 16 103 40 399 176 752 168 1034 -23 34 -23 56 -31 90 -31 l45 0 52 103
c29 56 76 139 106 184 30 45 52 85 49 88 -3 3 -302 5 -664 5 l-658 0 -24 -38z"/>
<path d="M8448 9053 l-37 -4 52 -77 c29 -42 77 -123 107 -179 53 -98 56 -102
88 -103 19 0 47 9 63 21 16 11 66 38 111 59 250 117 502 105 765 -35 l85 -45
839 0 c462 0 839 2 839 3 0 2 -9 33 -21 68 -28 87 -80 198 -118 253 l-32 46
-1352 -2 c-744 -1 -1369 -3 -1389 -5z"/>
<path d="M9941 8395 c17 -30 41 -85 54 -121 12 -36 25 -67 28 -70 3 -3 27 8
53 25 62 38 181 77 260 86 118 13 266 -22 416 -96 l78 -39 345 0 345 0 0 28
c0 40 -26 139 -52 195 l-21 47 -769 0 -768 0 31 -55z"/>
<path d="M10945 8034 c14 -20 30 -54 37 -75 l11 -39 295 0 294 0 -7 36 c-3 20
-12 53 -18 73 l-12 36 -312 3 -313 2 25 -36z"/>
<path d="M4380 7360 l0 -60 3620 0 3620 0 0 60 0 60 -3620 0 -3620 0 0 -60z"/>
<path d="M4445 6757 c3 -32 9 -65 12 -73 4 -12 137 -14 935 -14 l929 0 -15 23
c-9 12 -40 46 -69 75 l-52 54 -874 -3 -873 -4 7 -58z"/>
<path d="M4487 6553 c-8 -14 26 -158 55 -235 l10 -28 1082 0 1082 0 48 -55 47
-55 2302 2 2302 3 12 25 c7 14 15 45 19 68 l7 42 -2390 0 -2390 0 -32 38 c-18
20 -69 74 -113 120 l-80 82 -979 0 c-538 0 -980 -3 -982 -7z"/>
<path d="M4655 6013 c11 -49 72 -191 110 -258 l36 -65 1250 0 c1187 0 1249 1
1240 18 -5 9 -23 30 -40 46 -17 17 -31 33 -31 38 0 4 907 8 2015 8 l2014 0 27
46 c26 44 74 164 74 184 0 6 -1230 10 -3351 10 l-3351 0 7 -27z"/>
<path d="M7560 5435 l115 -115 -1315 -1 c-723 -1 -1319 -1 -1323 0 -28 5 241
-345 335 -436 l53 -52 1375 -7 1375 -6 -178 179 -179 180 273 6 c150 4 615 7
1033 7 419 0 987 3 1262 7 l502 6 39 51 c80 103 183 266 183 291 0 3 -825 5
-1832 5 l-1833 0 115 -115z"/>
<path d="M8280 4723 c47 -49 135 -140 196 -203 114 -117 164 -173 164 -184 0
-3 -581 -7 -1291 -8 l-1290 -3 93 -57 c95 -58 393 -210 483 -246 319 -129 594
-204 915 -249 181 -26 681 -26 865 0 219 31 402 71 609 135 l48 14 -198 199
-199 199 629 0 628 0 62 37 c152 92 313 216 462 356 l88 84 -454 6 c-250 3
-779 6 -1174 7 l-720 0 84 -87z"/>
<path d="M11065 3145 c-201 -31 -355 -107 -499 -244 -147 -141 -238 -314 -293
-556 -14 -62 -18 -122 -17 -270 0 -172 3 -200 27 -298 48 -192 104 -312 208
-443 113 -142 296 -258 478 -304 193 -49 442 -48 635 1 182 46 400 152 501
242 l55 49 0 414 0 414 -445 0 -445 0 2 -177 3 -178 233 0 232 0 0 -132 0
-131 -55 -37 c-222 -147 -502 -177 -696 -74 -71 38 -160 125 -203 199 -66 112
-106 292 -106 476 0 441 210 694 576 694 214 0 348 -78 432 -250 20 -41 36
-76 37 -77 1 -4 396 74 402 80 10 10 -27 124 -65 202 -87 176 -250 312 -442
369 -146 44 -390 58 -555 31z"/>
<path d="M3840 2075 l0 -1045 483 0 c721 1 830 12 966 99 115 74 215 225 246
371 59 279 -66 528 -310 622 l-56 21 33 16 c54 26 153 126 185 188 45 84 63
156 63 249 0 225 -144 417 -365 487 -93 29 -251 37 -750 37 l-495 0 0 -1045z
m1078 671 c153 -65 175 -303 37 -397 -64 -44 -111 -51 -412 -56 l-283 -6 0
243 0 242 308 -4 c266 -4 313 -7 350 -22z m27 -830 c115 -42 175 -128 175
-250 0 -101 -14 -141 -68 -195 -74 -74 -111 -81 -482 -88 l-310 -6 0 282 0
283 318 -4 c274 -4 324 -7 367 -22z"/>
<path d="M5890 2075 l0 -1045 195 0 195 0 1 803 c0 441 4 789 9 772 4 -16 33
-133 64 -260 30 -126 83 -342 116 -480 120 -492 149 -612 176 -723 l27 -112
201 2 201 3 48 195 c112 461 171 702 236 970 38 157 78 321 89 365 l20 80 1
-807 1 -808 195 0 195 0 0 1045 0 1045 -314 0 -313 0 -10 -47 c-6 -27 -65
-264 -132 -528 -68 -264 -142 -558 -166 -654 -25 -95 -46 -175 -48 -177 -2 -2
-20 63 -40 144 -21 81 -53 206 -71 277 -51 196 -152 587 -205 795 l-47 185
-312 3 -312 2 0 -1045z"/>
<path d="M8277 3113 c-4 -3 -7 -474 -7 -1045 l0 -1038 210 0 210 0 0 316 0
316 161 169 c89 93 164 169 168 169 3 -1 130 -219 281 -485 l275 -485 268 0
269 0 -23 38 c-26 42 -289 459 -324 512 -12 19 -87 136 -165 260 -78 124 -176
278 -218 343 l-75 118 19 24 c15 19 493 527 708 753 l40 42 -279 -1 -280 -1
-86 -96 c-48 -53 -156 -174 -240 -268 -85 -94 -230 -255 -324 -359 l-170 -189
-3 457 -2 457 -203 0 c-112 0 -207 -3 -210 -7z"/>
</g>
</svg>
