<?xml version="1.0" standalone="no"?>
<!DOCTYPE svg PUBLIC "-//W3C//DTD SVG 20010904//EN"
 "http://www.w3.org/TR/2001/REC-SVG-20010904/DTD/svg10.dtd">
<svg version="1.0" xmlns="http://www.w3.org/2000/svg"
 width="1600.000000pt" height="1200.000000pt" viewBox="0 0 1600.000000 1200.000000"
 preserveAspectRatio="xMidYMid meet">

<g transform="translate(0.000000,1200.000000) scale(0.100000,-0.100000)"
fill="#000000" stroke="none">
<path d="M7755 10623 c-33 -2 -132 -10 -219 -19 -1370 -135 -2628 -894 -3400
-2049 -723 -1082 -959 -2403 -655 -3665 364 -1516 1479 -2760 2952 -3294 349
-127 752 -216 1162 -258 155 -15 665 -15 820 0 411 42 809 130 1161 258 1020
369 1881 1084 2439 2024 725 1221 843 2731 318 4060 -470 1189 -1415 2138
-2608 2617 -613 247 -1300 361 -1970 326z m760 -87 c368 -47 647 -110 964
-218 1584 -541 2764 -1920 3045 -3558 52 -302 61 -411 61 -785 0 -373 -8 -476
-61 -785 -211 -1236 -948 -2353 -2016 -3054 -606 -398 -1264 -634 -2013 -723
-213 -25 -767 -25 -980 0 -437 52 -801 142 -1185 294 -1487 587 -2571 1913
-2844 3481 -51 288 -60 413 -61 777 0 368 7 467 56 762 214 1301 998 2464
2131 3159 615 377 1291 598 2027 664 156 14 726 4 876 -14z"/>
<path d="M7660 10419 c-903 -71 -1747 -410 -2470 -993 -161 -129 -507 -475
-636 -636 -556 -690 -876 -1453 -980 -2335 -23 -187 -26 -726 -6 -910 79 -739
314 -1402 709 -2004 179 -274 338 -467 582 -712 245 -245 439 -404 712 -582
765 -500 1632 -747 2544 -724 1028 26 1968 384 2770 1056 129 107 425 406 537
541 510 616 841 1327 973 2093 50 292 59 410 59 762 0 352 -9 469 -60 765
-221 1289 -1027 2438 -2174 3100 -576 332 -1209 526 -1894 580 -148 12 -512
11 -666 -1z m640 -209 l0 -50 -70 0 -70 0 0 -83 c0 -46 -3 -152 -7 -236 l-6
-152 -45 3 -46 3 3 233 3 232 -66 0 c-35 0 -67 4 -70 8 -2 4 -2 27 1 50 l6 42
183 0 184 0 0 -50z m-686 29 c89 -22 152 -104 176 -227 27 -137 -7 -259 -89
-317 -39 -27 -50 -30 -120 -30 -65 0 -83 4 -112 24 -80 54 -121 151 -123 286
-2 147 48 233 151 261 61 16 65 16 117 3z m935 -16 c3 -2 -11 -128 -30 -281
l-34 -277 -45 4 c-25 1 -46 4 -48 6 -3 2 53 474 63 533 6 32 7 32 48 26 23 -4
44 -9 46 -11z m264 -39 c15 -3 27 -8 27 -10 0 -2 -11 -52 -25 -110 -14 -58
-25 -110 -25 -115 0 -5 52 34 116 87 l116 98 55 -12 c54 -11 71 -18 62 -25
-48 -38 -209 -169 -209 -170 0 -1 22 -85 50 -187 27 -101 48 -186 46 -187 -7
-7 -101 20 -112 31 -6 6 -24 70 -39 141 -15 72 -29 132 -31 134 -1 2 -23 -13
-48 -34 -41 -34 -46 -43 -62 -113 -9 -42 -18 -80 -20 -83 -3 -6 -82 9 -92 16
-3 3 114 518 123 543 3 7 13 11 22 8 10 -3 30 -8 46 -12z m-1698 -134 c-30
-62 -55 -118 -55 -124 0 -6 57 -75 126 -154 69 -79 124 -145 122 -147 -1 -1
-28 -8 -58 -14 l-55 -12 -38 43 c-20 24 -61 73 -90 110 -28 37 -55 67 -58 68
-3 0 -16 -23 -29 -50 -23 -50 -24 -51 -7 -123 10 -39 17 -77 17 -83 0 -11 -80
-37 -88 -29 -2 1 -32 125 -66 275 -70 303 -71 275 5 293 26 7 26 6 53 -114 16
-66 29 -119 31 -117 1 2 28 62 60 133 31 72 60 134 65 139 12 12 114 35 118
26 1 -4 -22 -58 -53 -120z m2388 -61 l38 -13 -5 -71 c-3 -38 -11 -171 -17
-295 -6 -124 -12 -226 -13 -227 -1 -2 -24 4 -51 13 l-48 17 7 68 6 67 -81 31
c-44 17 -84 31 -89 31 -5 0 -25 -23 -45 -50 -39 -54 -40 -54 -108 -26 l-27 11
186 233 c103 128 192 231 198 229 6 -2 28 -10 49 -18z m-2932 -46 c39 -33 68
-95 69 -147 0 -38 -32 -106 -51 -106 -20 0 -7 -17 24 -32 36 -17 187 -145 187
-158 0 -5 -22 -16 -50 -25 l-49 -16 -93 76 c-101 82 -120 91 -160 76 l-27 -10
40 -102 c22 -56 38 -107 36 -113 -6 -15 -80 -41 -84 -30 -2 5 -48 124 -102
264 -54 140 -98 256 -96 258 1 2 54 23 116 47 139 54 192 58 240 18z m3514
-433 c-3 -113 -5 -203 -2 -200 2 3 41 73 87 155 46 83 84 151 85 153 5 7 75
-32 75 -42 0 -9 -224 -420 -258 -473 l-14 -22 -40 22 -40 22 6 198 c4 108 5
197 2 197 -2 0 -41 -67 -86 -150 -45 -82 -83 -150 -85 -150 -12 0 -75 35 -75
41 0 5 61 118 136 253 l136 245 40 -22 40 -22 -7 -205z m-3966 -10 c116 -107
211 -198 211 -202 0 -4 -18 -17 -40 -28 l-41 -21 -38 30 c-21 17 -43 37 -50
45 -10 12 -22 9 -84 -26 -40 -22 -76 -44 -80 -47 -4 -4 -1 -35 7 -69 l14 -62
-41 -25 c-23 -13 -44 -21 -48 -17 -3 4 -30 126 -58 272 -29 146 -54 274 -57
285 -3 15 5 26 33 42 21 12 43 21 50 20 6 -1 106 -90 222 -197z m-430 -282
c88 -114 161 -211 161 -215 0 -4 -17 -20 -37 -34 l-36 -26 -156 75 c-86 41
-166 78 -179 83 -29 11 -28 9 63 -106 39 -49 84 -107 100 -128 l28 -38 -29
-24 c-16 -14 -33 -24 -39 -24 -10 0 -332 409 -341 434 -3 7 10 25 29 39 l34
26 179 -84 c98 -47 180 -83 182 -81 2 2 -44 64 -102 138 -58 74 -106 138 -106
143 0 5 15 19 32 31 26 18 35 20 44 10 6 -6 84 -105 173 -219z m4984 109 l37
-32 -99 -273 c-54 -150 -101 -275 -104 -278 -9 -9 -77 46 -77 62 0 7 9 36 20
64 11 28 20 52 20 54 0 7 -138 108 -147 108 -4 -1 -30 -18 -56 -37 l-48 -36
-40 32 c-22 17 -38 33 -36 35 9 9 482 333 487 333 3 1 22 -14 43 -32z m372
-340 c21 -12 54 -42 72 -65 27 -36 33 -52 33 -93 0 -50 -16 -95 -42 -116 -10
-9 -21 -4 -47 19 -30 27 -32 33 -22 54 17 38 13 60 -15 93 -40 48 -104 39
-104 -15 0 -12 16 -55 35 -95 55 -116 47 -179 -34 -252 -43 -39 -91 -53 -145
-43 -38 7 -119 74 -141 117 -21 40 -19 105 6 155 30 64 40 68 78 36 l32 -27
-15 -37 c-22 -53 -20 -73 13 -110 50 -56 131 -38 131 28 0 12 -16 55 -35 95
-49 102 -45 160 13 223 55 58 122 70 187 33z m-5928 -248 c111 -96 202 -178
202 -184 0 -5 -12 -24 -27 -42 l-27 -32 -195 49 c-107 27 -196 50 -198 50 -2
0 58 -53 132 -117 75 -64 136 -120 136 -123 0 -3 -13 -19 -30 -35 l-30 -29
-27 25 c-16 14 -110 97 -210 184 -101 87 -183 160 -183 164 0 3 13 21 28 38
l27 33 194 -50 c107 -28 196 -49 197 -47 3 2 -130 120 -248 220 l-21 18 28 30
c16 16 34 28 39 26 6 -2 102 -82 213 -178z m1766 31 c-19 -71 -12 -185 16
-264 33 -95 80 -165 171 -256 75 -75 104 -95 248 -174 211 -116 281 -177 313
-274 12 -37 34 -79 49 -94 l28 -27 -97 -3 -96 -3 -5 -142 -5 -143 -39 -21
c-22 -11 -50 -19 -62 -16 -13 2 -21 0 -18 -4 9 -16 52 -10 88 12 l36 21 0 -29
c0 -23 -20 -46 -113 -131 -159 -145 -240 -196 -362 -228 -74 -20 -182 -17
-231 5 -64 29 -61 39 9 29 115 -16 266 23 384 98 32 20 69 40 83 45 16 5 19 8
8 8 -10 1 -18 5 -18 10 0 5 -13 -3 -29 -18 -44 -41 -159 -98 -232 -116 -81
-19 -209 -19 -253 -1 -59 25 -47 33 26 18 64 -13 81 -13 156 2 111 22 198 63
357 171 160 107 142 105 -31 -5 -158 -100 -231 -135 -308 -149 -131 -24 -228
-8 -283 46 -19 19 -33 37 -31 39 2 2 26 -3 53 -11 62 -19 212 -19 292 0 35 8
93 28 129 45 37 16 75 30 86 30 16 0 17 2 6 14 -11 12 -19 11 -53 -6 -188 -96
-440 -113 -522 -36 -35 33 -27 41 17 18 92 -47 228 -47 388 1 63 19 405 179
398 186 -2 2 -15 -1 -30 -7 -20 -7 -34 -7 -49 2 -19 10 -20 9 -9 -4 29 -35
-293 -175 -457 -198 -117 -16 -211 4 -275 60 -51 45 -45 53 19 24 67 -31 165
-40 265 -25 100 15 253 62 241 74 -5 5 -21 2 -40 -7 -17 -9 -70 -26 -118 -37
-126 -30 -277 -24 -356 14 -30 15 -62 39 -71 52 -20 30 -13 32 22 6 82 -58
226 -76 371 -47 87 18 506 144 481 145 -8 1 -31 -3 -50 -9 -22 -6 -38 -6 -44
0 -15 15 -26 12 -20 -4 12 -30 -378 -136 -501 -136 -118 0 -250 51 -280 110
-23 45 -18 53 18 26 64 -49 140 -68 277 -71 l125 -3 -115 8 c-178 13 -291 55
-326 121 -9 17 -11 29 -6 25 5 -3 33 -21 61 -41 86 -57 144 -70 311 -69 131 1
163 5 330 42 102 22 168 40 148 39 -21 0 -43 4 -50 11 -17 17 -33 15 -19 -2
15 -18 14 -18 -161 -50 -193 -36 -306 -42 -393 -22 -103 24 -191 70 -221 116
-43 65 -28 75 41 29 115 -76 221 -101 406 -98 65 1 119 5 119 9 0 4 -49 4
-108 2 -186 -8 -376 49 -451 133 -44 51 -38 63 12 23 65 -52 90 -66 174 -94
107 -36 249 -42 503 -19 198 17 245 25 151 25 -32 0 -62 7 -79 17 l-27 17 18
-21 18 -21 -98 -9 c-150 -13 -370 -10 -433 6 -154 38 -250 113 -274 214 -8 34
4 34 35 1 13 -14 38 -35 54 -46 17 -12 13 -5 -12 16 -39 34 -83 93 -83 111 0
5 30 -21 68 -57 129 -125 256 -167 532 -174 96 -2 216 -6 265 -8 50 -1 79 0
65 5 -14 4 -46 7 -72 8 -36 1 -50 6 -62 23 -9 12 -16 18 -16 12 0 -5 5 -15 12
-22 9 -9 -15 -12 -108 -12 -215 0 -353 24 -480 84 -120 57 -185 131 -199 229
-8 55 6 63 26 15 18 -43 103 -126 172 -167 66 -39 202 -88 267 -96 31 -4 22 1
-30 14 -200 53 -360 157 -406 266 -26 63 -15 71 23 15 117 -174 264 -241 633
-290 91 -11 176 -23 190 -25 14 -3 5 2 -20 10 -25 8 -51 23 -57 32 -12 16 -13
16 -13 0 0 -21 5 -21 -165 3 -163 23 -266 50 -352 91 -135 64 -233 194 -233
308 l0 56 24 -50 c66 -141 203 -248 411 -320 44 -16 86 -33 93 -38 8 -7 12 -5
12 7 0 9 -8 16 -19 16 -30 0 -158 48 -236 88 -124 65 -250 203 -261 289 l-5
38 21 -45 c56 -118 159 -212 316 -286 66 -32 145 -57 300 -95 115 -28 225 -57
244 -65 19 -8 30 -11 25 -5 -6 6 -41 22 -79 36 -38 14 -76 34 -83 43 -12 16
-13 16 -7 0 3 -10 3 -18 -1 -18 -27 0 -304 74 -359 96 -146 58 -285 175 -340
286 -28 56 -32 91 -15 135 10 27 11 26 48 -52 46 -99 121 -190 203 -248 70
-50 243 -139 251 -130 3 3 -38 27 -91 53 -121 59 -205 122 -271 202 -67 82
-101 151 -100 202 l0 41 14 -36 c22 -61 56 -122 97 -176 39 -51 158 -149 208
-172 21 -10 22 -9 6 1 -132 91 -232 193 -268 275 -26 58 -39 135 -28 169 l8
29 1 -26 c1 -15 17 -57 35 -95 49 -97 156 -210 269 -283 51 -33 104 -71 120
-85 23 -21 27 -22 27 -7 0 11 -15 25 -42 37 -111 50 -287 212 -357 329 -26 43
-36 72 -39 116 -5 66 12 82 23 22 18 -104 127 -261 238 -344 25 -19 17 -8 -21
26 -69 63 -134 150 -177 235 -34 66 -45 174 -23 204 13 17 16 13 31 -50 10
-37 36 -106 58 -153 33 -68 58 -101 123 -166 90 -89 197 -166 230 -164 20 1
20 2 1 6 -42 11 -133 80 -221 167 -70 71 -98 108 -127 166 -51 106 -72 193
-58 241 17 57 31 57 31 2 0 -131 69 -282 179 -393 92 -94 171 -146 361 -238
85 -40 166 -88 195 -113 49 -42 49 -42 15 -5 -19 21 -59 52 -88 69 -43 26 -52
36 -49 55 2 12 0 22 -4 22 -5 0 -9 -9 -9 -20 0 -11 -3 -20 -6 -20 -3 0 -69 32
-147 72 -132 66 -149 79 -238 167 -111 110 -159 195 -186 329 -18 87 -13 136
18 176 29 37 37 32 33 -21 -5 -57 2 -46 11 17 5 41 41 118 50 109 2 -2 -3 -29
-12 -59z m2274 -13 c4 -21 8 -25 15 -15 14 22 56 -35 63 -87 10 -60 -16 -169
-61 -264 -30 -61 -55 -95 -133 -172 -91 -90 -106 -101 -241 -169 -134 -67
-145 -70 -148 -51 -2 12 -7 21 -11 21 -5 0 -6 -10 -4 -22 3 -19 -6 -29 -49
-55 -29 -17 -69 -49 -88 -69 l-35 -38 46 41 c28 24 116 75 218 127 251 124
366 218 446 360 39 70 75 196 75 263 0 51 15 49 29 -4 15 -54 -2 -125 -58
-239 -43 -86 -61 -111 -133 -180 -83 -79 -175 -147 -213 -157 -19 -4 -19 -5 1
-6 33 -2 139 74 230 164 65 65 89 97 123 166 22 47 48 116 58 153 15 61 18 66
30 50 7 -10 13 -39 13 -66 0 -120 -106 -287 -265 -417 l-40 -33 49 34 c117 80
242 252 261 361 4 20 11 37 16 37 14 0 10 -73 -6 -120 -43 -122 -235 -313
-388 -386 -25 -12 -37 -24 -37 -38 0 -20 0 -20 15 0 8 12 46 40 85 63 176 105
322 274 350 404 8 36 9 30 7 -38 -4 -147 -74 -244 -287 -398 l-25 -18 25 12
c51 23 169 121 210 174 23 30 57 89 76 132 32 75 34 77 34 39 0 -78 -103 -229
-213 -312 -66 -49 -225 -133 -254 -135 -11 0 -13 -3 -5 -6 6 -2 10 -8 7 -12
-9 -15 211 105 263 142 75 55 139 135 188 235 l43 86 11 -29 c46 -119 -124
-322 -346 -415 -58 -24 -338 -100 -369 -100 -4 0 -5 7 -1 15 3 8 1 15 -4 15
-6 0 -10 -6 -10 -14 0 -8 -32 -25 -75 -41 -41 -15 -77 -31 -80 -36 -3 -4 10
-2 30 6 19 9 128 38 242 66 284 70 398 124 518 246 30 30 68 82 86 116 30 59
31 60 26 24 -13 -85 -123 -208 -252 -282 -83 -47 -96 -61 -22 -24 122 62 224
160 274 264 l24 50 -4 -66 c-10 -159 -146 -288 -370 -349 -60 -17 -321 -59
-364 -60 -7 0 -13 8 -13 17 0 16 -1 16 -12 0 -7 -9 -33 -24 -58 -32 -25 -8
-34 -13 -20 -10 14 2 99 14 190 25 301 40 449 92 553 195 31 30 68 76 84 102
35 60 45 34 13 -32 -45 -92 -204 -200 -362 -245 -34 -10 -55 -19 -45 -19 35
-2 172 50 239 90 76 45 159 124 178 170 19 46 33 21 20 -37 -21 -94 -78 -155
-194 -210 -127 -60 -265 -84 -480 -84 -93 0 -117 3 -108 12 7 7 12 17 12 23 0
5 -8 0 -18 -12 -12 -16 -31 -23 -67 -26 -27 -3 60 -3 195 -2 209 3 257 6 327
24 115 29 196 73 275 148 50 49 65 59 61 41 -4 -12 -32 -48 -62 -78 -58 -58
-43 -51 21 9 21 19 40 32 43 30 2 -3 0 -22 -6 -43 -23 -82 -134 -164 -269
-197 -63 -16 -284 -18 -433 -6 -96 9 -98 9 -81 28 9 10 12 19 7 19 -6 0 -16
-7 -23 -15 -8 -10 -31 -15 -68 -15 -30 0 -53 -2 -51 -4 12 -12 408 -38 509
-34 163 7 260 41 370 128 l44 35 -20 -35 c-27 -48 -100 -94 -197 -127 -73 -24
-99 -27 -230 -29 -81 -1 -151 -4 -154 -8 -3 -3 68 -4 158 -3 190 4 254 20 368
93 39 25 68 38 70 32 8 -22 -33 -79 -78 -109 -121 -80 -295 -94 -556 -45 -177
34 -175 33 -168 54 6 15 5 15 -11 3 -10 -8 -34 -14 -54 -14 -21 1 44 -16 143
-38 340 -74 538 -62 667 41 45 36 56 38 34 6 -9 -14 -13 -32 -10 -40 9 -25
-24 -74 -69 -100 -134 -79 -293 -72 -604 25 -107 34 -130 45 -125 58 5 13 3
14 -9 4 -11 -9 -25 -10 -50 -3 -18 6 -41 10 -49 9 -18 0 187 -66 360 -115 215
-61 377 -57 483 12 40 26 50 17 16 -17 -66 -66 -250 -89 -412 -50 -48 11 -101
28 -117 36 -23 12 -35 13 -50 5 -23 -12 -27 -22 -6 -14 8 3 50 -6 93 -19 171
-54 328 -59 429 -13 63 29 69 21 18 -24 -43 -37 -70 -49 -146 -61 -116 -19
-326 36 -504 132 -82 44 -93 53 -82 67 11 13 10 14 -9 4 -16 -9 -31 -8 -63 3
-24 8 -45 15 -48 15 -3 0 71 -38 166 -85 191 -94 289 -128 411 -145 96 -13
156 -6 229 26 56 25 66 20 30 -14 -83 -77 -334 -60 -523 35 -29 15 -43 17 -51
10 -7 -8 3 -16 35 -28 25 -9 80 -29 121 -44 59 -22 98 -29 180 -32 95 -4 132
0 209 23 l25 7 -22 -30 c-44 -62 -156 -87 -286 -64 -91 16 -145 42 -319 150
-81 51 -150 92 -152 90 -5 -6 233 -163 290 -192 125 -63 251 -86 352 -64 65
14 74 5 17 -19 -44 -18 -172 -18 -252 1 -70 17 -145 52 -212 100 -33 23 -51
30 -65 24 -19 -7 -19 -8 -1 -8 10 -1 48 -19 84 -42 125 -79 272 -117 389 -101
51 7 61 6 52 -4 -26 -31 -97 -47 -187 -41 -153 9 -261 66 -449 239 -93 85
-113 108 -113 131 l0 29 36 -21 c36 -22 79 -28 88 -12 3 4 -5 6 -18 4 -12 -3
-40 5 -62 16 l-39 21 -5 143 -5 142 -96 3 -97 3 28 27 c15 15 37 57 49 94 17
51 33 77 70 113 61 59 75 69 255 168 171 94 258 167 334 282 98 145 125 306
77 450 -6 17 -3 16 14 -5 12 -14 24 -38 28 -53z m2208 -123 c15 -19 25 -36 24
-38 -2 -1 -100 -80 -217 -175 -119 -96 -219 -171 -226 -168 -8 3 -23 19 -35
35 l-21 30 218 176 c119 97 220 176 223 176 4 0 19 -16 34 -36z m-3175 -183
c0 -15 -40 -60 -58 -64 -9 -2 -6 -3 8 -1 14 1 34 6 45 10 19 8 19 7 4 -16 -9
-14 -31 -30 -50 -37 -32 -11 -33 -12 -7 -12 15 -1 38 3 52 9 17 6 26 6 26 0 0
-18 -40 -50 -62 -50 l-21 0 22 -24 c15 -16 25 -43 30 -81 9 -62 27 -85 69 -85
13 0 20 -4 17 -10 -8 -13 -51 -13 -75 0 -21 11 -34 -8 -19 -31 7 -11 9 -10 9
5 0 19 1 19 23 -1 12 -11 36 -28 52 -36 l30 -16 -28 -1 c-16 0 -38 5 -49 11
-29 16 -45 -3 -29 -33 11 -23 11 -23 8 4 -4 24 -2 25 16 15 11 -7 30 -21 41
-32 12 -11 31 -25 42 -32 18 -10 18 -11 1 -18 -12 -5 -29 0 -50 15 l-32 23 35
-38 c19 -20 44 -41 55 -45 17 -7 15 -9 -11 -9 -17 -1 -43 8 -56 19 -14 10 -29
16 -33 12 -4 -4 -6 0 -4 8 3 20 -21 70 -34 70 -6 0 -7 -3 -4 -7 4 -3 2 -12 -3
-18 -12 -14 -3 -45 12 -45 5 0 7 10 3 23 -5 19 -5 20 5 4 12 -18 5 -57 -10
-57 -10 0 -6 -77 5 -88 4 -4 6 9 4 28 -1 19 1 46 6 60 l9 25 7 -25 7 -25 1 24
c1 20 3 21 16 11 11 -9 12 -16 5 -25 -7 -9 -5 -23 5 -46 l16 -34 -5 45 c-4 41
-3 43 10 26 8 -11 14 -24 14 -30 0 -5 6 -1 14 9 14 19 14 19 36 0 18 -16 21
-28 17 -62 -2 -23 -13 -52 -23 -66 -17 -21 -21 -22 -33 -9 -13 13 -16 13 -28
-4 -20 -28 -16 -11 13 46 19 38 23 55 15 63 -8 8 -11 7 -11 -5 0 -9 -6 -23
-13 -30 -7 -7 -13 -23 -14 -36 -3 -33 -23 -57 -34 -40 -7 10 -9 10 -9 1 0 -7
-7 -13 -15 -13 -17 0 -18 2 -9 24 3 9 10 14 14 11 4 -2 7 13 7 34 0 31 -2 37
-12 28 -7 -7 -10 -18 -5 -27 4 -9 0 -27 -10 -44 -18 -27 -18 -28 -29 -8 -6 11
-11 32 -11 47 0 16 -4 24 -11 20 -6 -4 -16 1 -24 11 -13 18 -14 17 -20 -9 -8
-31 1 -49 14 -28 6 9 11 10 15 2 4 -6 4 -16 0 -23 -4 -7 -3 -8 4 -4 7 4 12 5
12 2 0 -2 3 -11 6 -20 4 -11 1 -16 -10 -16 -9 0 -16 6 -16 13 0 9 -3 8 -9 -2
-7 -11 -11 -10 -21 5 -11 18 -11 18 -6 1 5 -15 1 -18 -22 -15 -33 4 -42 14
-42 51 0 16 -4 26 -8 23 -12 -7 -39 27 -34 42 2 7 -2 12 -8 12 -8 0 -10 -8 -6
-22 3 -13 6 -32 6 -43 0 -15 2 -17 9 -6 6 9 11 10 15 2 4 -6 4 -16 0 -23 -4
-6 -3 -8 3 -5 6 4 13 -2 16 -13 3 -13 0 -20 -9 -20 -8 0 -14 5 -14 11 0 8 -4
8 -14 0 -12 -10 -15 -6 -21 18 -3 17 -4 35 0 41 3 6 0 7 -9 4 -10 -4 -19 4
-28 26 l-14 33 -1 -49 c-1 -29 1 -41 6 -31 6 16 9 16 18 5 6 -7 14 -23 17 -35
6 -17 3 -23 -9 -23 -12 0 -15 6 -10 23 l6 22 -14 -23 c-16 -27 -27 -19 -27 20
0 16 -4 27 -9 23 -5 -3 -12 4 -16 15 -3 11 -11 20 -16 20 -6 0 -7 6 -4 13 4 6
0 4 -8 -6 -8 -10 -12 -28 -9 -44 l5 -27 10 25 c6 15 11 19 14 11 3 -7 -1 -27
-7 -43 -14 -33 -30 -23 -30 17 0 12 -7 24 -15 27 -8 4 -18 21 -23 39 -7 26
-11 29 -17 16 -4 -10 3 -37 19 -69 15 -28 24 -54 21 -57 -3 -3 -5 0 -5 6 0 6
-9 16 -20 22 -11 6 -20 7 -19 3 5 -29 -3 -33 -22 -9 -32 40 -37 106 -10 130
16 14 24 16 34 7 11 -9 17 -8 27 4 11 13 8 15 -16 16 -25 0 -26 1 -9 9 11 4
31 19 44 34 l24 25 -32 -9 c-17 -5 -31 -7 -31 -5 0 2 19 17 43 35 35 26 38 30
16 25 -43 -11 -40 8 5 31 l42 21 -3 -36 c-3 -36 -3 -36 8 -8 16 41 5 60 -31
52 -44 -10 -60 6 -19 19 36 12 48 38 29 61 -16 19 -67 19 -100 0 -32 -18 -91
-19 -115 -1 -16 12 -13 14 31 20 27 3 60 16 74 27 l25 21 -25 -7 c-52 -14 -80
-17 -97 -10 -26 11 62 26 164 28 l82 2 -22 -24 -22 -24 35 24 c55 38 62 60 17
58 -12 0 -16 -3 -9 -6 24 -10 11 -18 -34 -21 -27 -2 -69 5 -105 18 -70 24
-119 26 -159 5 -26 -13 -30 -14 -30 -1 0 21 44 53 85 60 37 7 43 22 24 58 -10
19 -9 20 10 15 23 -6 27 3 9 21 -9 9 -7 12 10 12 11 0 26 -8 31 -17 6 -10 11
-13 11 -8 0 6 -7 21 -16 33 -19 27 0 31 28 5 20 -18 25 -4 8 28 -12 22 -7 24
21 9 10 -6 19 -17 19 -26 0 -13 4 -12 31 1 25 14 51 15 158 9 117 -6 130 -5
166 14 45 24 55 26 55 13z m3365 -105 c24 -13 51 -40 70 -70 26 -42 30 -59 30
-116 0 -60 -4 -73 -35 -118 -83 -123 -268 -207 -374 -172 -49 16 -102 63 -128
114 -25 49 -27 130 -3 177 27 53 104 127 172 165 102 57 187 64 268 20z
m-6814 -66 c151 -40 275 -73 277 -75 7 -6 -51 -85 -62 -85 -6 0 -33 7 -60 15
-27 8 -52 15 -57 15 -4 0 -28 -34 -54 -75 -52 -83 -52 -77 9 -142 32 -35 31
-45 -12 -100 -17 -22 -19 -20 -205 208 l-187 230 26 45 c15 25 32 43 38 41 7
-3 136 -37 287 -77z m-356 -385 c131 -34 252 -129 275 -215 9 -35 9 -52 -5
-93 -14 -41 -79 -183 -90 -195 -3 -3 -494 222 -513 234 -1 1 19 48 46 105 79
168 139 202 287 164z m7468 -30 c9 -20 17 -41 17 -46 0 -9 -163 -222 -239
-312 -16 -20 5 -11 203 82 60 28 112 51 116 51 8 0 42 -71 37 -77 -9 -9 -493
-233 -503 -233 -16 0 -48 76 -38 92 5 7 59 77 121 156 62 79 113 145 113 147
0 2 -72 -30 -160 -72 -89 -42 -163 -74 -165 -71 -2 2 -11 21 -20 41 l-15 37
102 47 c57 27 171 80 253 120 83 39 153 72 156 72 3 1 13 -15 22 -34z m-4003
-165 c0 -11 -7 -20 -15 -20 -13 0 -14 4 -5 20 6 11 13 20 15 20 3 0 5 -9 5
-20z m630 -295 l0 -255 -130 0 -130 0 0 38 c0 64 10 84 36 79 13 -2 24 0 24 4
0 5 9 9 20 9 18 0 18 2 -6 38 -20 28 -24 45 -20 71 6 42 23 62 35 42 6 -9 11
-10 15 -2 11 17 26 13 27 -6 0 -13 3 -11 10 6 9 23 10 24 24 5 13 -17 14 -17
15 -1 0 26 20 21 20 -5 0 -19 2 -20 10 -8 16 25 12 40 -19 71 -16 16 -31 42
-33 57 -2 20 -11 30 -36 38 -17 5 -37 15 -44 22 -17 17 -70 15 -94 -3 -10 -8
-27 -15 -36 -15 -23 0 -48 -27 -48 -52 0 -11 -11 -29 -25 -40 -19 -15 -25 -28
-24 -56 0 -32 1 -34 9 -14 12 30 18 28 29 -10 l9 -33 1 35 c1 35 15 32 24 -5
4 -18 5 -18 6 3 1 24 16 30 24 10 4 -10 8 -9 16 2 13 19 28 5 33 -30 l3 -25
-105 0 -105 0 -3 143 -3 142 236 0 235 0 0 -255z m-872 131 l-3 -61 32 -3 32
-3 -21 -35 c-22 -38 -31 -43 -26 -15 2 11 -8 27 -21 38 -24 20 -24 22 -12 76
7 31 9 62 5 68 -5 8 -3 9 5 5 8 -5 11 -29 9 -70z m267 9 c0 -78 -11 -93 -57
-77 l-33 11 35 -2 35 -2 3 55 c2 51 8 80 14 80 2 0 3 -29 3 -65z m-186 -139
c18 -21 30 -72 24 -97 -5 -18 -8 -16 -20 17 -8 22 -15 48 -16 59 0 11 -6 23
-11 27 -8 5 -7 8 0 8 6 0 17 -6 23 -14z m-3162 -111 c2 -1 -4 -23 -13 -48
l-16 -47 -68 0 -68 0 -26 -78 c-14 -42 -26 -82 -26 -88 0 -6 21 -26 48 -44 26
-18 49 -35 50 -36 5 -4 -19 -77 -28 -87 -4 -5 -113 70 -243 167 l-235 175 15
49 16 49 296 -5 c163 -2 297 -5 298 -7z m2982 -101 l2 -116 -37 -49 c-113
-155 -304 -253 -425 -218 l-44 13 56 7 c99 14 227 82 333 178 31 28 53 51 48
51 -4 0 -34 -24 -65 -54 -129 -120 -322 -185 -422 -142 -27 11 -23 12 50 13
66 0 92 5 152 30 103 44 208 117 259 182 74 93 70 97 -12 11 -133 -139 -270
-213 -394 -213 -42 0 -79 7 -105 19 l-40 18 95 7 c52 4 115 14 140 23 96 36
272 147 252 160 -5 3 -18 -4 -28 -15 -32 -36 -165 -108 -247 -134 -96 -31
-176 -32 -232 -5 -22 11 -31 18 -20 16 71 -15 109 -16 172 -2 157 32 256 90
408 238 55 54 101 97 102 98 0 0 2 -52 2 -116z m594 -2 l59 -3 -46 -35 c-25
-19 -46 -36 -46 -38 0 -1 7 -24 16 -50 9 -26 14 -49 12 -52 -3 -2 -23 9 -46
26 -23 16 -44 30 -47 30 -3 0 -24 -14 -47 -30 -23 -17 -43 -28 -46 -26 -2 3 3
26 12 52 9 26 16 49 16 50 0 2 -21 19 -46 38 l-46 35 59 3 58 3 20 57 19 58
21 -58 20 -57 58 -3z m687 -133 c123 -73 269 -107 375 -86 l40 7 -29 -16 c-40
-22 -133 -29 -197 -14 -73 16 -225 90 -275 134 -23 19 -44 33 -47 29 -15 -14
160 -124 253 -159 25 -9 88 -19 140 -23 l95 -7 -40 -18 c-60 -28 -154 -25
-238 7 -88 34 -143 73 -246 171 l-85 81 50 -65 c58 -75 155 -145 264 -191 63
-27 88 -32 155 -32 73 -1 77 -2 50 -13 -100 -43 -293 22 -422 142 -31 30 -61
54 -65 54 -5 0 17 -23 48 -51 106 -96 234 -164 333 -178 l56 -7 -44 -13 c-121
-35 -312 63 -425 218 l-37 49 2 116 1 116 110 -105 c60 -58 140 -123 178 -146z
m3194 163 l119 -7 13 -45 c8 -25 14 -46 14 -47 0 -4 -492 -334 -494 -331 -6 7
-26 72 -26 84 0 8 24 30 53 49 l54 36 -25 89 -26 90 -67 0 -68 0 -10 38 c-6
20 -11 42 -11 48 0 12 215 10 474 -4z m-4194 -125 c0 -91 65 -188 155 -233
l55 -26 0 -170 0 -169 -22 6 c-13 3 -61 25 -107 47 -114 55 -222 161 -275 268
-39 81 -66 186 -66 263 l0 47 130 0 130 0 0 -33z m600 -18 c12 -8 10 -10 -10
-7 -20 3 -26 0 -26 -14 0 -10 6 -18 13 -18 7 0 13 5 13 10 0 19 30 10 46 -15
11 -17 14 -33 9 -52 -4 -16 -8 -39 -9 -52 -1 -14 -7 -26 -14 -29 -7 -2 -12 -9
-12 -16 0 -8 -8 -24 -19 -37 -10 -13 -16 -29 -14 -36 2 -6 -1 -15 -8 -19 -9
-5 -10 -2 -6 9 3 10 2 17 -3 17 -18 0 -10 20 8 21 11 0 12 2 4 6 -7 3 -22 -3
-33 -13 -17 -15 -18 -19 -4 -26 21 -12 19 -38 -7 -65 -23 -25 -54 -30 -61 -10
-3 9 -7 9 -17 0 -17 -16 -4 -32 23 -26 19 4 20 3 5 -7 -10 -6 -20 -11 -23 -10
-3 0 -14 -9 -25 -20 -11 -11 -27 -20 -35 -20 -8 0 -23 -5 -34 -11 -25 -16 -88
-3 -101 21 -13 24 -13 70 0 90 8 12 10 11 10 -7 0 -14 6 -23 15 -23 8 0 15 5
15 10 0 6 -4 10 -10 10 -20 0 -9 40 15 57 15 10 46 37 70 61 49 47 63 54 39
17 -9 -13 -14 -30 -11 -37 4 -8 6 -7 6 4 1 11 6 15 15 12 8 -3 17 -1 21 5 3 6
1 11 -4 11 -19 0 -12 20 7 21 13 0 11 3 -6 10 -24 9 -23 18 6 52 8 9 12 17 9
17 -3 0 5 22 19 50 19 38 32 52 57 59 43 12 50 12 67 0z m-911 -107 c-110
-121 -214 -184 -313 -189 l-61 -2 53 13 c113 30 255 127 323 222 30 40 34 44
37 25 2 -15 -11 -38 -39 -69z m1113 -24 c62 -60 151 -119 208 -136 104 -33
100 -30 53 -31 -88 -2 -192 56 -300 167 -45 47 -63 73 -63 91 l1 26 21 -30
c12 -16 47 -56 80 -87z m-1062 32 c0 -28 -130 -161 -184 -188 -24 -13 -69 -25
-98 -28 l-53 -5 83 40 c65 31 99 57 160 119 42 43 80 79 85 80 4 1 7 -7 7 -18z
m1202 -180 c68 -33 77 -40 52 -40 -17 0 -55 7 -85 16 -45 14 -67 30 -136 99
-55 55 -83 90 -83 105 0 19 14 9 85 -59 65 -62 106 -92 167 -121z m-1154 24
c10 -19 9 -23 -8 -27 -23 -6 -26 3 -7 22 6 8 -10 -1 -38 -19 l-50 -33 38 39
c20 22 37 44 37 49 0 5 -17 -7 -37 -27 -50 -48 -95 -69 -154 -73 l-50 -4 61
41 c33 22 84 67 112 99 l52 58 16 -52 c9 -28 22 -62 28 -73z m1065 -35 c57
-38 54 -46 -9 -22 -12 4 -15 3 -10 -5 18 -29 -92 27 -133 68 -44 45 -39 24 7
-24 39 -41 30 -40 -27 3 -32 24 -33 24 -23 4 10 -18 9 -20 -7 -16 -18 5 -18 7
5 64 13 32 24 67 24 76 0 12 19 -3 55 -44 31 -34 83 -80 118 -104z m-4645 32
c20 -11 43 -29 49 -40 13 -20 13 -20 49 4 97 66 254 -4 254 -112 0 -28 -34
-223 -46 -264 -4 -13 -40 -8 -282 39 -152 29 -278 55 -279 55 -4 5 49 243 59
265 32 66 123 90 196 53z m8217 -77 c6 -38 4 -42 -17 -47 -13 -2 -113 -22
-223 -43 -110 -21 -202 -39 -204 -41 -4 -3 28 -198 36 -219 4 -11 -84 -31 -93
-21 -7 7 -65 309 -60 314 8 8 541 110 547 104 4 -3 10 -25 14 -47z m-4602 -20
c-2 -35 -1 -37 11 -21 11 14 16 15 22 6 4 -8 -4 -22 -22 -37 -16 -13 -23 -21
-16 -18 15 9 15 5 2 -30 -10 -24 -9 -26 6 -13 14 12 16 9 12 -21 -1 -20 -13
-44 -25 -55 -12 -11 -24 -31 -28 -45 -6 -24 -6 -24 10 -5 9 11 25 30 36 43 11
13 17 27 14 32 -4 6 -2 10 3 10 4 0 6 23 2 50 -5 36 -3 54 6 61 21 18 36 0 29
-34 -7 -30 -6 -31 8 -12 15 19 15 19 36 0 12 -10 20 -24 17 -31 -3 -8 0 -11 9
-8 18 7 65 -25 65 -45 0 -13 2 -13 9 -2 16 24 26 -10 22 -76 -2 -41 1 -63 8
-63 10 0 17 56 13 103 -3 27 21 15 29 -14 7 -24 7 -24 8 -1 1 20 4 21 21 12
16 -9 20 -21 20 -68 1 -45 3 -53 11 -39 6 11 11 34 11 53 0 22 5 34 14 34 8 0
14 -8 14 -17 0 -10 5 -25 10 -33 7 -12 11 -8 16 18 9 44 32 42 32 -4 0 -20 5
-41 11 -47 8 -8 11 3 11 41 0 41 4 53 20 62 17 9 20 8 21 -12 1 -23 1 -23 8 1
8 29 32 41 29 14 -4 -50 3 -104 13 -97 6 3 9 29 8 63 -4 61 7 94 22 70 7 -11
9 -11 9 2 0 20 47 52 65 45 9 -3 12 0 9 8 -3 7 5 21 16 31 20 18 21 18 36 -1
14 -18 15 -17 9 12 -7 38 25 75 49 55 13 -11 14 -8 9 22 -8 52 12 55 55 10 20
-21 51 -49 67 -61 l30 -21 -39 -1 -39 0 46 -31 c52 -35 59 -49 22 -49 l-24 0
24 -36 c14 -20 25 -41 25 -45 0 -14 -28 -11 -60 6 -33 17 -36 12 -14 -25 8
-14 13 -17 10 -7 -3 9 -2 17 3 17 14 0 28 -23 41 -67 8 -27 17 -40 26 -36 9 3
11 -2 7 -16 -3 -12 -1 -21 4 -21 5 0 17 -25 28 -55 10 -30 25 -61 34 -68 9 -8
54 -29 101 -47 84 -32 130 -68 130 -101 0 -21 -27 -56 -36 -47 -4 4 -1 14 5
22 23 28 -2 54 -84 85 -28 11 -29 10 -10 -4 11 -9 30 -18 41 -21 45 -11 51
-91 9 -108 -14 -5 -16 -2 -10 11 16 40 17 53 3 53 -7 0 -29 10 -48 23 -34 23
-70 40 -70 33 0 -1 22 -18 50 -37 38 -26 50 -40 50 -60 0 -31 -17 -49 -45 -48
-14 0 -16 2 -5 6 15 6 30 23 30 34 0 3 -24 21 -52 39 -53 34 -58 36 -79 39 -5
0 -7 6 -4 11 4 6 -10 10 -34 10 -22 0 -51 5 -65 11 -20 9 -29 9 -41 -1 -12
-10 -15 -10 -15 2 0 24 22 38 62 38 27 0 38 4 38 15 0 8 6 15 13 16 9 0 9 2
-1 6 -6 2 -10 9 -6 14 3 5 -2 9 -11 9 -9 0 -14 4 -11 9 3 4 -3 16 -14 26 -11
10 -17 22 -14 26 3 5 -2 9 -11 9 -9 0 -13 5 -10 10 3 6 1 10 -5 10 -6 0 -9 4
-6 9 3 5 -1 12 -10 15 -8 3 -12 10 -9 16 3 5 1 10 -4 10 -6 0 -20 9 -31 20
-11 11 -20 15 -20 9 0 -18 -19 1 -40 39 -15 30 -19 33 -20 15 0 -39 -18 -34
-36 11 -16 37 -20 41 -30 28 -10 -14 -12 -14 -22 4 -5 10 -13 35 -18 54 l-8
35 -8 -44 c-9 -53 -13 -58 -35 -40 -15 13 -16 12 -9 -6 5 -11 9 -29 10 -40 0
-11 6 -24 13 -30 6 -5 43 -86 81 -180 l70 -170 -30 -13 c-17 -7 -43 -15 -58
-18 -24 -5 -29 -2 -39 22 l-11 29 6 -32 c5 -27 2 -33 -13 -33 -10 0 -28 -3
-40 -6 -18 -5 -23 -2 -24 12 -1 16 -2 16 -6 3 -5 -20 -33 -29 -90 -29 l-43 0
-2 48 -2 47 -3 -47 c-4 -47 -5 -48 -38 -48 -51 0 -185 21 -185 29 0 4 7 31 16
60 8 29 13 55 11 57 -2 3 -12 -23 -21 -57 -17 -59 -19 -61 -46 -56 -15 4 -42
12 -58 19 l-31 13 70 170 c39 94 76 175 82 180 7 6 13 19 13 30 1 11 5 29 10
40 7 18 6 19 -9 6 -22 -18 -27 -12 -34 40 l-6 42 -20 -54 c-17 -46 -22 -51
-31 -36 -9 15 -14 11 -33 -31 -19 -42 -22 -45 -28 -24 -8 24 -25 30 -25 8 0
-19 -39 -65 -40 -47 0 11 -6 8 -20 -7 -12 -12 -25 -22 -31 -22 -6 0 -7 -5 -4
-10 3 -6 -1 -13 -9 -16 -9 -3 -13 -10 -10 -15 3 -5 0 -9 -6 -9 -6 0 -8 -4 -5
-10 3 -5 -1 -10 -9 -10 -9 0 -15 -4 -13 -9 1 -5 -10 -22 -25 -39 -14 -17 -24
-33 -21 -36 4 -3 1 -6 -5 -6 -9 0 -9 -5 0 -20 9 -14 24 -20 48 -20 38 0 60
-14 60 -39 0 -12 -3 -12 -17 2 -16 13 -20 14 -37 1 -11 -8 -39 -14 -64 -14
-26 0 -41 -4 -37 -10 3 -5 1 -10 -4 -10 -21 0 -26 -3 -68 -31 -23 -16 -46 -29
-52 -29 -16 0 -13 -26 5 -44 12 -13 12 -16 2 -16 -22 0 -38 22 -38 51 0 21 10
33 48 58 26 17 41 31 34 31 -7 0 -30 -11 -52 -25 -22 -14 -44 -25 -50 -25 -13
0 -13 -37 0 -45 16 -10 11 -25 -6 -18 -41 16 -34 96 10 107 11 3 30 12 41 21
19 14 18 15 -10 4 -82 -31 -107 -57 -84 -85 6 -8 9 -18 5 -22 -9 -9 -36 26
-36 47 0 35 46 70 130 101 95 36 111 49 136 118 10 26 22 50 27 53 6 4 7 15 3
24 -4 12 -2 16 8 12 10 -4 17 4 21 26 4 18 13 42 21 55 18 28 39 30 24 3 -5
-11 -10 -23 -10 -28 1 -9 39 58 40 70 0 4 -13 1 -30 -8 -32 -17 -60 -20 -60
-6 0 4 11 25 25 45 l24 36 -24 0 c-37 0 -30 14 22 49 l46 31 -39 0 -39 0 35
27 c19 15 49 42 65 60 37 41 51 37 48 -13z m-632 -247 c39 -29 66 -59 150
-168 26 -33 27 -33 46 -16 11 9 22 17 26 17 16 0 137 -93 130 -100 -4 -4 -42
-20 -83 -35 -41 -16 -81 -36 -88 -44 -7 -9 -17 -15 -22 -14 -5 2 -7 -3 -4 -10
2 -7 -4 -21 -15 -31 -19 -18 -22 -18 -46 -2 -14 9 -47 45 -73 79 -25 34 -77
92 -114 130 l-67 67 80 0 c93 0 95 2 49 98 -16 34 -25 62 -20 62 4 0 28 -15
51 -33z m2084 -15 c-13 -26 -27 -62 -31 -80 l-6 -32 82 0 82 0 -51 -46 c-28
-25 -82 -86 -121 -134 -38 -49 -80 -94 -92 -101 -19 -10 -26 -7 -62 34 -31 35
-58 53 -111 73 -38 15 -74 30 -78 34 -8 7 115 100 132 100 5 0 14 -7 21 -15 7
-8 16 -15 20 -15 4 0 35 37 69 82 53 71 138 148 163 148 4 0 -3 -21 -17 -48z
m-1464 -391 c257 -108 556 -107 808 0 69 30 101 39 120 33 14 -3 35 -8 46 -9
11 -2 50 -21 87 -43 79 -46 80 -45 -43 -111 -165 -89 -328 -130 -554 -138
-253 -9 -446 27 -630 117 -103 50 -180 100 -154 100 8 0 41 16 74 36 32 20 72
38 89 40 16 2 31 6 34 9 10 10 30 5 123 -34z m124 -262 c33 -6 107 -14 165
-18 l105 -6 3 -45 c2 -36 -3 -54 -27 -90 -33 -51 -101 -108 -86 -74 18 42 45
150 44 174 -1 16 -5 9 -11 -20 -18 -83 -49 -168 -65 -182 -15 -11 -16 -11 -9
7 38 97 65 205 32 129 -15 -34 -73 -97 -106 -114 l-21 -11 19 38 c34 66 66
183 51 183 -5 0 -9 -8 -9 -18 0 -23 -42 -147 -64 -190 -28 -55 -37 -35 -11 24
21 48 65 176 65 191 0 16 -18 -12 -23 -35 -3 -16 -18 -44 -34 -62 -28 -33
-100 -90 -114 -90 -4 0 12 39 37 87 24 48 44 94 44 102 0 9 -18 -21 -40 -67
-42 -88 -76 -142 -90 -142 -5 0 13 42 40 93 51 98 69 144 52 133 -5 -3 -13
-18 -17 -33 -14 -59 -85 -120 -158 -139 l-29 -7 37 48 c40 53 89 144 81 152
-2 3 -15 -15 -27 -39 -34 -67 -97 -156 -119 -168 -28 -15 -25 -7 23 58 23 32
56 83 72 114 l29 55 50 -13 c28 -8 78 -19 111 -25z m826 -138 c22 -29 38 -56
35 -59 -11 -10 -77 71 -117 145 -23 40 -43 72 -46 69 -7 -6 34 -84 74 -139 19
-27 32 -51 29 -54 -3 -3 -30 7 -61 21 -58 29 -99 73 -110 119 -4 15 -12 30
-17 33 -20 13 34 -114 84 -193 11 -18 15 -33 9 -33 -15 0 -48 51 -91 142 -22
46 -40 76 -40 67 0 -8 20 -54 44 -102 25 -48 41 -87 37 -87 -14 0 -86 57 -114
90 -16 18 -31 46 -34 62 -5 23 -23 51 -23 35 0 -14 46 -149 65 -194 13 -29 19
-53 14 -53 -15 0 -69 124 -82 187 -6 29 -15 53 -19 53 -4 0 -8 -2 -8 -4 0 -15
46 -148 62 -180 21 -41 16 -41 -43 6 -21 15 -46 47 -58 71 -28 57 -27 23 4
-66 22 -66 23 -70 5 -48 -19 22 -34 65 -59 171 l-10 45 5 -52 c2 -28 13 -76
24 -107 l19 -56 -30 22 c-17 13 -44 43 -60 68 -24 36 -29 54 -27 90 l3 45 110
7 c99 6 205 23 290 46 29 8 31 7 63 -52 17 -34 50 -85 73 -115z m-4504 148
c77 -37 105 -134 58 -205 -40 -61 -130 -82 -193 -44 -98 60 -94 195 8 248 55
27 72 28 127 1z m8043 -1 c102 -53 106 -188 8 -248 -122 -74 -266 63 -200 190
19 36 88 80 127 80 11 0 41 -10 65 -22z m-7700 -750 c7 -24 20 -74 31 -113 25
-93 25 -155 -2 -189 -32 -41 -90 -66 -154 -66 -49 0 -59 4 -94 35 -36 33 -40
34 -46 16 -6 -21 -170 -181 -185 -181 -4 0 -14 23 -20 51 l-13 51 92 92 c77
78 91 96 91 124 0 18 -6 35 -13 38 -7 2 -56 -7 -108 -21 -52 -14 -99 -25 -106
-25 -12 0 -39 78 -30 86 6 7 509 142 529 143 12 1 21 -12 28 -41z m7797 -72
c-3 -8 -9 -31 -13 -50 l-6 -36 -69 0 -68 0 -11 -42 c-6 -24 -17 -65 -25 -91
l-13 -49 45 -26 c75 -45 73 -41 56 -95 l-14 -49 -27 18 c-15 10 -121 78 -237
152 -115 74 -216 140 -223 147 -10 9 -11 21 -1 58 9 37 16 47 33 48 11 0 113
6 226 13 301 19 353 19 347 2z m-7542 -638 c41 -84 75 -156 75 -159 0 -10 -78
-42 -88 -35 -5 3 -31 52 -57 110 l-48 104 -54 -26 c-29 -14 -53 -30 -53 -34 0
-5 20 -49 45 -98 25 -49 45 -94 45 -100 0 -5 -18 -19 -40 -30 l-40 -20 -51
102 c-28 57 -53 104 -54 106 -2 2 -33 -12 -69 -30 l-66 -33 55 -114 c30 -62
55 -115 55 -117 0 -6 -82 -46 -86 -42 -6 6 -142 292 -146 306 -2 8 91 59 247
136 138 69 251 125 253 125 2 1 37 -68 77 -151z m7031 31 c137 -60 253 -114
258 -120 6 -5 3 -24 -10 -49 l-19 -39 -255 113 c-140 63 -255 118 -255 123 0
11 26 83 30 83 1 0 115 -50 251 -111z m-310 -304 l35 -14 -23 -41 c-22 -39
-25 -40 -60 -34 -31 5 -41 1 -62 -19 -50 -50 -45 -110 10 -115 22 -2 44 10 97
53 82 66 126 82 185 65 50 -13 114 -67 132 -110 19 -47 8 -125 -26 -172 -39
-55 -72 -78 -122 -85 -42 -6 -128 12 -138 28 -2 5 4 26 15 48 20 39 21 39 55
29 88 -27 168 82 104 142 -34 31 -60 24 -132 -35 -108 -88 -180 -95 -261 -24
-67 59 -69 139 -6 226 49 67 122 89 197 58z m-6422 -226 c76 -113 89 -155 61
-209 -51 -98 -182 -149 -260 -101 -17 10 -48 43 -69 74 -22 32 -44 54 -50 50
-6 -4 -46 -31 -89 -61 -43 -30 -79 -53 -81 -51 -42 57 -48 71 -35 84 17 17
442 315 449 315 3 0 36 -45 74 -101z m6025 -284 c1 -6 -33 -51 -74 -100 -41
-49 -75 -91 -74 -94 0 -8 80 -71 89 -71 6 0 121 132 141 163 7 9 79 -41 79
-55 0 -3 -31 -44 -70 -90 -38 -45 -70 -86 -70 -89 0 -7 100 -89 110 -89 4 0
42 42 85 93 43 50 81 92 85 92 3 0 21 -12 39 -28 29 -24 31 -30 20 -45 -40
-51 -212 -252 -216 -252 -5 0 -421 348 -427 358 -2 4 45 67 106 139 l111 132
33 -27 c18 -15 33 -32 33 -37z m-5674 -145 l30 -31 -153 -147 c-168 -162 -182
-184 -141 -235 27 -36 62 -49 93 -38 12 5 76 58 140 118 191 176 182 170 207
147 48 -44 48 -44 -103 -185 -166 -154 -216 -189 -272 -189 -89 0 -186 99
-186 189 0 28 8 60 20 81 23 38 308 319 326 320 5 0 23 -14 39 -30z m5360
-452 c94 -116 171 -216 173 -223 2 -7 -13 -24 -32 -39 l-35 -26 -177 80 c-98
44 -179 79 -180 77 -2 -2 46 -64 106 -137 l109 -135 -32 -27 c-18 -15 -35 -26
-38 -25 -4 1 -86 99 -182 217 l-176 215 36 32 35 32 41 -19 c23 -10 98 -43
167 -75 69 -31 135 -61 148 -66 15 -6 -17 40 -93 134 l-115 142 32 28 c18 15
35 27 38 27 3 -1 82 -96 175 -212z m-4810 -34 c94 -69 116 -95 122 -141 10
-73 -59 -163 -125 -163 -20 0 -22 -3 -15 -22 33 -92 -41 -204 -141 -215 -52
-6 -62 -1 -194 94 l-103 75 24 31 c13 18 88 121 167 230 l143 197 26 -17 c14
-9 58 -40 96 -69z m4143 -244 c62 -36 131 -123 161 -206 63 -167 -15 -312
-173 -322 -56 -4 -71 -1 -117 24 -119 65 -214 250 -189 370 29 140 189 208
318 134z m-3653 -62 c3 -3 -35 -92 -85 -198 -49 -107 -92 -201 -95 -210 -4
-13 16 -27 95 -63 55 -26 100 -52 100 -57 0 -9 -27 -68 -35 -78 -3 -3 -286
125 -294 133 -2 3 50 119 115 258 l118 254 38 -17 c21 -9 41 -19 43 -22z
m2974 -202 c109 -57 204 -283 171 -406 -19 -71 -68 -110 -189 -153 -57 -21
-105 -36 -107 -35 -5 5 -194 531 -192 533 2 1 48 18 103 38 108 39 170 45 214
23z m-2425 -16 l25 -9 -84 -243 c-46 -134 -88 -255 -93 -269 l-11 -27 -44 16
-45 16 92 268 c100 295 88 276 160 248z m389 -100 c5 -4 -1 -56 -13 -115 -11
-59 -19 -110 -17 -112 2 -2 54 41 114 96 l111 99 56 -12 c32 -6 56 -16 54 -21
-1 -6 -46 -48 -101 -94 -54 -46 -96 -89 -94 -95 10 -25 107 -349 107 -356 0
-9 -102 8 -113 19 -4 4 -23 68 -43 142 -19 73 -36 135 -37 136 -2 1 -23 -17
-48 -40 -43 -40 -46 -46 -58 -121 l-13 -78 -44 5 c-25 2 -47 7 -49 9 -4 4 90
511 101 546 4 13 70 8 87 -8z m1496 -102 c65 -519 66 -478 -7 -478 -37 0 -38
2 -146 165 -60 91 -110 165 -110 165 -1 0 8 -80 20 -177 12 -98 21 -178 20
-179 0 -1 -20 -4 -43 -8 -39 -6 -43 -4 -48 16 -8 37 -67 540 -63 543 2 1 22 5
45 9 l43 6 115 -172 c63 -95 115 -168 115 -163 0 6 -9 82 -20 170 -11 88 -20
165 -20 172 0 13 21 20 61 22 26 1 27 -1 38 -91z m-695 -25 c3 -32 8 -160 12
-285 l6 -228 -45 0 c-35 0 -47 4 -51 18 -2 9 -8 137 -12 285 l-6 267 45 0 45
0 6 -57z"/>
<path d="M7488 10117 c-38 -35 -52 -88 -44 -166 13 -128 68 -197 149 -187 77
9 114 79 104 192 -7 76 -32 138 -65 164 -36 29 -111 27 -144 -3z"/>
<path d="M9373 9777 l-62 -81 47 -18 c26 -10 52 -18 58 -18 7 0 13 37 17 97 3
54 5 98 4 99 -1 1 -30 -34 -64 -79z"/>
<path d="M6405 9847 c-68 -26 -70 -31 -36 -110 l20 -47 53 21 c98 38 117 64
87 122 -23 44 -39 45 -124 14z"/>
<path d="M5944 9456 c12 -52 23 -95 26 -96 5 -3 89 37 99 46 6 5 -63 77 -110
114 l-36 29 21 -93z"/>
<path d="M10488 9153 l-77 -56 44 -33 c24 -19 46 -34 50 -34 3 0 10 12 16 28
45 117 57 152 51 152 -4 -1 -42 -26 -84 -57z"/>
<path d="M6842 8590 c0 -14 2 -19 5 -12 2 6 2 18 0 25 -3 6 -5 1 -5 -13z"/>
<path d="M6855 8535 c3 -16 24 -68 46 -114 44 -89 140 -200 231 -267 26 -20
48 -43 49 -52 0 -14 2 -13 8 3 6 16 -2 25 -48 55 -112 73 -220 212 -272 353
-10 28 -17 39 -14 22z"/>
<path d="M7113 7980 c11 -7 74 -34 140 -60 112 -44 169 -72 237 -117 l25 -17
-25 27 c-14 14 -52 41 -85 59 -39 22 -61 42 -66 58 -7 24 -7 24 -8 3 -1 -13
-3 -23 -6 -23 -2 0 -46 15 -97 34 -51 19 -102 37 -113 41 -19 6 -19 6 -2 -5z"/>
<path d="M6950 7954 c0 -12 140 -69 285 -115 88 -28 182 -62 209 -76 26 -13
45 -19 41 -13 -9 14 -124 70 -143 70 -7 0 -18 14 -23 30 -13 36 -32 41 -23 6
l6 -24 -119 37 c-65 21 -144 49 -176 64 -31 14 -57 24 -57 21z"/>
<path d="M6610 7706 c0 -3 9 -10 20 -16 11 -6 20 -8 20 -6 0 3 -9 10 -20 16
-11 6 -20 8 -20 6z"/>
<path d="M7000 7686 c0 -2 14 -6 30 -8 17 -3 30 -1 30 4 0 4 -13 8 -30 8 -16
0 -30 -2 -30 -4z"/>
<path d="M6667 7669 c7 -7 15 -10 18 -7 3 3 -2 9 -12 12 -14 6 -15 5 -6 -5z"/>
<path d="M6710 7650 c8 -5 20 -10 25 -10 6 0 3 5 -5 10 -8 5 -19 10 -25 10 -5
0 -3 -5 5 -10z"/>
<path d="M6788 7623 c7 -3 16 -2 19 1 4 3 -2 6 -13 5 -11 0 -14 -3 -6 -6z"/>
<path d="M6845 7610 c17 -5 64 -13 105 -16 41 -4 85 -10 97 -15 16 -6 21 -5
17 5 -3 9 -36 15 -97 20 -51 3 -105 9 -122 11 l-30 5 30 -10z"/>
<path d="M7408 7513 c6 -2 18 -2 25 0 6 3 1 5 -13 5 -14 0 -19 -2 -12 -5z"/>
<path d="M7098 7425 c-3 -3 -34 -12 -69 -20 l-64 -15 55 6 c30 4 65 6 77 5 16
0 21 4 17 14 -7 17 -8 17 -16 10z"/>
<path d="M7438 7303 c6 -2 18 -2 25 0 6 3 1 5 -13 5 -14 0 -19 -2 -12 -5z"/>
<path d="M9172 8690 c0 -14 2 -19 5 -12 2 6 2 18 0 25 -3 6 -5 1 -5 -13z"/>
<path d="M9162 8600 c0 -14 2 -19 5 -12 2 6 2 18 0 25 -3 6 -5 1 -5 -13z"/>
<path d="M9140 8517 c-33 -118 -158 -284 -271 -357 -46 -30 -54 -39 -48 -55 6
-16 8 -17 8 -3 1 9 23 33 50 53 78 56 184 177 223 252 37 72 63 141 55 149 -2
2 -10 -15 -17 -39z"/>
<path d="M8795 7950 c-55 -22 -103 -39 -107 -39 -5 -1 -8 9 -9 22 -1 21 -1 21
-8 -3 -5 -16 -27 -36 -66 -58 -33 -18 -73 -47 -90 -63 -25 -25 -18 -22 39 15
37 25 112 61 165 82 106 40 202 82 186 82 -5 0 -55 -17 -110 -38z"/>
<path d="M9000 7932 c-30 -14 -108 -42 -173 -63 l-119 -37 6 24 c4 13 2 24 -4
24 -5 0 -12 -11 -16 -24 -4 -17 -24 -31 -79 -55 -41 -18 -80 -39 -86 -47 -7
-9 9 -4 37 10 27 13 121 47 209 75 148 47 285 103 285 116 0 6 5 8 -60 -23z"/>
<path d="M9055 7814 c-33 -12 -70 -23 -82 -23 -14 -1 -23 -7 -23 -17 0 -12 4
-14 13 -7 6 6 41 20 77 32 61 20 108 42 85 40 -5 -1 -37 -12 -70 -25z"/>
<path d="M9374 7694 c-18 -14 -18 -15 4 -4 12 6 22 13 22 15 0 8 -5 6 -26 -11z"/>
<path d="M9028 7693 c6 -2 18 -2 25 0 6 3 1 5 -13 5 -14 0 -19 -2 -12 -5z"/>
<path d="M8950 7682 c0 -5 14 -7 30 -4 17 2 30 6 30 8 0 2 -13 4 -30 4 -16 0
-30 -4 -30 -8z"/>
<path d="M9330 7670 c-9 -6 -10 -10 -3 -10 6 0 15 5 18 10 8 12 4 12 -15 0z"/>
<path d="M9280 7650 c-8 -5 -10 -10 -5 -10 6 0 17 5 25 10 8 5 11 10 5 10 -5
0 -17 -5 -25 -10z"/>
<path d="M9208 7623 c7 -3 16 -2 19 1 4 3 -2 6 -13 5 -11 0 -14 -3 -6 -6z"/>
<path d="M8588 7613 c7 -3 16 -2 19 1 4 3 -2 6 -13 5 -11 0 -14 -3 -6 -6z"/>
<path d="M9144 7614 c-6 -3 -53 -8 -104 -12 -61 -4 -95 -11 -98 -20 -3 -9 2
-10 20 -3 12 4 57 11 98 15 73 6 157 24 115 24 -11 0 -25 -2 -31 -4z"/>
<path d="M8578 7513 c6 -2 18 -2 25 0 6 3 1 5 -13 5 -14 0 -19 -2 -12 -5z"/>
<path d="M9445 7460 c-54 -36 -155 -62 -275 -70 l-115 -8 125 3 c137 3 219 24
275 70 36 30 31 32 -10 5z"/>
<path d="M8896 7415 c-4 -10 1 -14 17 -14 12 1 47 -1 77 -5 l55 -6 -62 14
c-35 8 -67 17 -72 20 -5 3 -11 -1 -15 -9z"/>
<path d="M8548 7303 c6 -2 18 -2 25 0 6 3 1 5 -13 5 -14 0 -19 -2 -12 -5z"/>
<path d="M7820 8346 c-19 -7 -35 -18 -34 -24 2 -27 5 -32 15 -32 5 0 7 5 4 10
-4 7 2 9 17 5 16 -4 29 -1 37 9 8 9 20 16 29 16 8 0 13 3 9 6 -3 4 -27 1 -53
-5 -25 -7 -48 -10 -51 -7 -3 2 24 11 59 19 39 10 52 15 33 15 -16 0 -46 -5
-65 -12z"/>
<path d="M8025 8330 c-4 -6 -1 -9 7 -8 8 2 12 -5 11 -17 -1 -11 3 -23 9 -26 7
-4 8 -14 3 -25 -4 -11 -9 -23 -9 -29 -3 -26 -24 -48 -41 -41 -15 5 -16 4 -6
-8 14 -17 41 -11 41 9 0 7 7 16 16 19 9 3 14 12 11 20 -3 7 0 19 6 25 8 8 8
17 0 33 -6 13 -14 31 -17 41 -6 19 -21 23 -31 7z"/>
<path d="M7869 8303 c-13 -16 -12 -17 4 -4 9 7 17 15 17 17 0 8 -8 3 -21 -13z"/>
<path d="M7730 8303 c14 -3 28 -10 32 -17 5 -7 8 -5 8 7 0 13 -8 17 -32 16
-28 -2 -29 -2 -8 -6z"/>
<path d="M7805 8250 c10 -11 20 -20 23 -20 3 0 -3 9 -13 20 -10 11 -20 20 -23
20 -3 0 3 -9 13 -20z"/>
<path d="M8060 8143 c1 -5 7 -19 15 -33 10 -18 14 -20 15 -8 0 23 -11 48 -21
48 -5 0 -9 -3 -9 -7z"/>
<path d="M8126 8128 c8 -28 12 -33 20 -25 9 8 -6 47 -17 47 -6 0 -7 -10 -3
-22z"/>
<path d="M7958 8134 c-3 -5 -2 -20 2 -34 6 -21 8 -22 14 -8 8 18 -8 57 -16 42z"/>
<path d="M8010 8125 c0 -11 4 -26 9 -33 7 -11 9 -11 14 1 3 8 -1 23 -8 34 -14
17 -14 17 -15 -2z"/>
<path d="M7900 8113 c0 -10 5 -25 10 -33 7 -11 10 -7 10 18 0 17 -4 32 -10 32
-5 0 -10 -8 -10 -17z"/>
<path d="M8107 8086 c-3 -7 -1 -19 4 -27 7 -12 9 -12 9 0 0 11 3 11 14 1 8 -6
13 -17 10 -25 -3 -7 0 -16 6 -20 19 -11 3 42 -18 63 -15 15 -22 17 -25 8z"/>
<path d="M8050 8071 c0 -12 5 -21 10 -21 6 0 10 6 10 14 0 8 -4 18 -10 21 -5
3 -10 -3 -10 -14z"/>
<path d="M7876 8063 c-4 -9 -2 -21 4 -27 7 -7 10 -2 10 17 0 31 -5 34 -14 10z"/>
<path d="M7940 8061 c0 -25 6 -27 13 -6 4 8 2 17 -3 20 -6 4 -10 -3 -10 -14z"/>
<path d="M7994 8069 c-3 -6 -1 -16 5 -22 8 -8 11 -5 11 11 0 24 -5 28 -16 11z"/>
<path d="M8083 8053 c4 -6 1 -17 -6 -25 -20 -19 -42 -61 -39 -74 3 -17 -23
-35 -41 -28 -9 3 -13 12 -10 20 3 9 -3 22 -16 30 -12 9 -20 18 -18 22 2 4 -8
18 -21 32 -14 14 -22 20 -19 13 4 -6 3 -13 -2 -15 -4 -1 -5 -12 0 -23 7 -18 8
-18 8 -2 1 10 6 15 11 12 6 -4 8 -14 6 -23 -7 -23 9 -49 19 -32 6 9 9 9 16 -1
4 -7 4 -18 -1 -24 -5 -6 -5 -17 1 -25 8 -13 10 -13 19 0 8 12 10 11 10 -7 0
-12 -5 -25 -10 -28 -15 -9 -40 13 -34 29 3 8 -2 16 -10 19 -9 4 -16 15 -16 25
0 10 -7 19 -15 19 -17 0 -19 -8 -7 -22 4 -6 5 -9 3 -8 -2 2 -11 -6 -18 -17
-17 -24 -26 -80 -14 -80 13 0 24 34 12 38 -7 2 -7 10 1 25 11 21 11 21 19 2 7
-20 8 -20 8 0 1 14 4 16 12 8 11 -11 -4 -53 -19 -53 -5 0 -9 -18 -10 -40 -2
-23 2 -40 8 -40 6 0 10 15 8 33 -2 42 12 69 23 41 7 -18 8 -18 8 0 1 15 3 16
16 6 9 -8 12 -16 6 -19 -6 -4 -6 -20 -1 -41 7 -29 8 -31 10 -10 3 43 10 74 20
84 5 5 7 -1 4 -15 -5 -23 -5 -23 9 -6 11 13 17 15 22 7 4 -7 3 -16 -2 -21 -12
-12 -4 -61 8 -53 5 3 9 24 9 47 0 28 3 37 9 28 7 -11 11 -10 19 6 8 14 8 23 0
31 -7 7 -9 12 -4 12 4 0 0 7 -8 16 -18 17 -21 50 -6 59 6 3 7 -1 4 -9 -4 -9
-1 -16 6 -16 8 0 10 9 6 24 -6 26 8 45 18 24 3 -7 4 -1 3 14 -2 15 -7 31 -12
35 -4 4 -5 3 -2 -4z m-32 -147 c0 18 1 18 8 -1 6 -14 4 -23 -6 -28 -19 -11
-44 10 -36 30 5 14 8 13 20 -3 12 -17 13 -17 14 2z"/>
<path d="M7970 8014 c0 -8 5 -12 10 -9 6 4 8 11 5 16 -9 14 -15 11 -15 -7z"/>
<path d="M8005 8006 c-15 -22 -12 -56 5 -56 13 0 19 27 8 38 -6 6 -7 16 -3 22
6 9 10 9 16 -1 7 -11 9 -10 9 4 0 24 -17 21 -35 -7z"/>
<path d="M8116 8011 c-4 -6 -4 -21 0 -33 6 -19 7 -19 16 -5 11 20 -5 57 -16
38z"/>
<path d="M7868 7985 c-3 -13 -1 -22 3 -19 5 3 9 -3 9 -12 0 -27 10 -10 15 25
4 38 -20 44 -27 6z"/>
<path d="M8092 7945 c-1 -19 3 -37 9 -40 6 -4 8 8 5 30 -6 49 -12 53 -14 10z"/>
<path d="M7841 7936 c-10 -12 -10 -19 2 -36 14 -21 15 -21 20 7 7 34 -5 49
-22 29z"/>
<path d="M8119 7917 c4 -12 6 -27 4 -34 -2 -6 1 -14 7 -18 6 -4 9 6 8 29 -2
20 -8 38 -15 40 -9 4 -10 -1 -4 -17z"/>
<path d="M7816 7883 c-3 -3 -6 -18 -6 -32 1 -23 2 -24 11 -8 6 9 15 15 20 11
7 -4 6 -10 0 -18 -7 -8 -7 -23 -2 -42 10 -31 13 -27 16 21 2 30 -27 80 -39 68z"/>
<path d="M8093 7863 c4 -3 3 -11 -2 -17 -5 -6 -4 -21 2 -36 l10 -25 7 30 c7
34 3 55 -13 55 -6 0 -7 -3 -4 -7z"/>
<path d="M7775 7838 c-4 -9 -5 -26 -3 -38 3 -21 3 -21 20 -1 14 16 14 22 3 38
-12 16 -14 17 -20 1z"/>
<path d="M8190 7814 c6 -14 10 -42 10 -62 l1 -37 14 26 c15 28 9 73 -8 62 -6
-4 -8 0 -4 10 3 9 0 18 -8 21 -11 4 -12 0 -5 -20z"/>
<path d="M7700 7820 c0 -5 7 -10 15 -10 8 0 15 5 15 10 0 6 -7 10 -15 10 -8 0
-15 -4 -15 -10z"/>
<path d="M8120 7814 c0 -8 5 -12 10 -9 7 4 9 -2 4 -19 -3 -14 -3 -38 2 -53 l8
-28 6 35 c6 37 -6 90 -21 90 -5 0 -9 -7 -9 -16z"/>
<path d="M8280 7820 c0 -5 7 -10 15 -10 8 0 15 5 15 10 0 6 -7 10 -15 10 -8 0
-15 -4 -15 -10z"/>
<path d="M8060 7809 c0 -5 5 -7 10 -4 6 3 10 8 10 11 0 2 -4 4 -10 4 -5 0 -10
-5 -10 -11z"/>
<path d="M8006 7791 c3 -13 2 -21 -3 -18 -5 4 -7 -8 -4 -26 4 -24 6 -27 9 -12
2 11 8 22 12 25 5 3 2 16 -6 30 -15 25 -15 25 -8 1z"/>
<path d="M7690 7770 c0 -5 7 -7 15 -4 8 4 15 8 15 10 0 2 -7 4 -15 4 -8 0 -15
-4 -15 -10z"/>
<path d="M8290 7776 c0 -2 7 -6 15 -10 8 -3 15 -1 15 4 0 6 -7 10 -15 10 -8 0
-15 -2 -15 -4z"/>
<path d="M7716 7749 c2 -4 -2 -9 -8 -12 -7 -2 -10 -8 -6 -12 8 -8 38 12 38 25
0 3 -7 7 -15 7 -8 0 -12 -4 -9 -8z"/>
<path d="M8039 7758 c-6 -21 -5 -38 2 -38 5 0 9 9 9 20 0 16 -7 28 -11 18z"/>
<path d="M8270 7750 c0 -15 28 -31 35 -20 3 5 1 10 -5 10 -6 0 -9 4 -6 8 3 5
-1 9 -9 9 -8 0 -15 -4 -15 -7z"/>
<path d="M11344 8244 c-86 -45 -144 -113 -144 -169 0 -58 57 -115 114 -115 38
0 129 45 174 85 58 52 77 91 68 139 -16 83 -115 111 -212 60z"/>
<path d="M4540 8233 c0 -2 28 -36 61 -76 34 -40 63 -73 64 -75 2 -2 17 17 35
43 18 26 29 49 26 53 -8 8 -186 61 -186 55z"/>
<path d="M4262 7797 c-27 -15 -44 -40 -65 -88 l-15 -37 164 -76 c90 -43 168
-75 173 -72 5 3 18 33 31 65 22 60 22 61 3 93 -13 24 -42 45 -103 76 -93 47
-152 60 -188 39z"/>
<path d="M4085 7187 c107 -80 135 -98 140 -85 35 96 35 96 12 102 -12 3 -58 6
-102 6 l-80 -1 30 -22z"/>
<path d="M11776 7114 c4 -16 12 -44 18 -62 l12 -33 84 55 85 56 -87 0 c-47 0
-94 3 -103 6 -13 5 -15 2 -9 -22z"/>
<path d="M7707 7075 c-16 -12 -16 -14 1 -35 16 -19 22 -21 40 -11 31 16 30 59
-1 59 -13 0 -31 -6 -40 -13z"/>
<path d="M7737 6995 c-22 -16 -22 -42 1 -54 21 -11 48 6 54 33 4 24 -32 38
-55 21z"/>
<path d="M7772 6905 c-11 -25 -4 -36 29 -48 19 -6 45 33 36 56 -9 24 -53 18
-65 -8z"/>
<path d="M7610 6916 c0 -2 7 -7 16 -10 8 -3 12 -2 9 4 -6 10 -25 14 -25 6z"/>
<path d="M7840 6844 c0 -7 -6 -14 -12 -17 -19 -6 9 -37 33 -37 22 0 41 32 33
54 -7 18 -54 18 -54 0z"/>
<path d="M7772 6775 c0 -16 2 -22 5 -12 2 9 2 23 0 30 -3 6 -5 -1 -5 -18z"/>
<path d="M7915 6787 c-23 -14 -32 -55 -13 -61 29 -9 82 -15 72 -8 -6 4 -15 22
-19 39 -8 40 -15 45 -40 30z"/>
<path d="M7798 6643 c6 -2 18 -2 25 0 6 3 1 5 -13 5 -14 0 -19 -2 -12 -5z"/>
<path d="M8302 7051 c-10 -6 -10 -10 2 -20 10 -9 16 -9 21 -1 10 16 -7 31 -23
21z"/>
<path d="M8390 7042 c0 -6 6 -13 13 -16 6 -3 -6 -5 -28 -3 -40 2 -40 2 -77
-68 -20 -38 -40 -77 -44 -85 -10 -21 -77 -90 -87 -90 -14 0 -77 -72 -71 -81 9
-15 61 -10 74 6 7 8 18 15 25 15 6 0 20 9 30 20 19 21 65 28 65 9 0 -8 5 -7
16 2 10 8 12 15 5 17 -18 6 -13 37 16 94 37 71 53 117 46 134 -3 8 0 14 6 14
6 0 11 -4 11 -10 0 -5 7 -10 15 -10 8 0 15 8 15 19 0 10 -7 24 -15 31 -9 8
-15 8 -15 2z m-100 -262 c0 -5 -5 -10 -11 -10 -5 0 -7 5 -4 10 3 6 8 10 11 10
2 0 4 -4 4 -10z"/>
<path d="M8280 7020 c0 -5 5 -10 11 -10 5 0 7 5 4 10 -3 6 -8 10 -11 10 -2 0
-4 -4 -4 -10z"/>
<path d="M8263 6987 c-7 -11 17 -28 29 -21 4 3 8 11 8 18 0 15 -28 17 -37 3z"/>
<path d="M8380 6942 c0 -11 7 -23 16 -26 11 -4 15 0 12 16 -4 28 -28 36 -28
10z"/>
<path d="M8234 6929 c-8 -14 18 -31 30 -19 9 9 0 30 -14 30 -5 0 -12 -5 -16
-11z"/>
<path d="M8351 6881 c-9 -15 -7 -20 9 -24 15 -4 20 0 20 13 0 27 -17 34 -29
11z"/>
<path d="M8154 6829 c-8 -14 11 -33 25 -25 11 7 4 36 -9 36 -5 0 -12 -5 -16
-11z"/>
<path d="M8107 6793 c-10 -16 11 -39 23 -27 8 8 7 14 -4 23 -8 7 -17 8 -19 4z"/>
<path d="M8310 6790 c0 -5 5 -10 11 -10 5 0 7 5 4 10 -3 6 -8 10 -11 10 -2 0
-4 -4 -4 -10z"/>
<path d="M8085 6760 c3 -5 8 -10 11 -10 2 0 4 5 4 10 0 6 -5 10 -11 10 -5 0
-7 -4 -4 -10z"/>
<path d="M8181 6697 c-9 -12 -8 -16 5 -21 22 -8 28 -1 17 19 -8 14 -11 14 -22
2z"/>
<path d="M8062 6667 c8 -16 12 -17 19 -6 13 21 11 28 -10 26 -16 -1 -18 -5 -9
-20z"/>
<path d="M8120 6660 c-9 -16 -8 -20 5 -20 8 0 15 9 15 20 0 11 -2 20 -5 20 -2
0 -9 -9 -15 -20z"/>
<path d="M7485 6859 c-22 -23 -58 -54 -79 -70 -49 -36 -36 -38 16 -3 32 22
117 114 106 114 -2 0 -22 -19 -43 -41z"/>
<path d="M8509 6863 c40 -49 98 -100 105 -92 1 2 -31 36 -73 74 -74 69 -75 69
-32 18z"/>
<path d="M3891 6723 c-5 -10 -14 -44 -21 -77 -10 -47 -9 -60 1 -66 21 -13 101
-22 110 -13 5 5 12 40 16 78 5 59 4 70 -12 81 -27 20 -82 18 -94 -3z"/>
<path d="M4122 6697 c-10 -12 -42 -127 -42 -153 0 -13 131 -37 141 -26 6 7 29
115 29 139 0 7 -9 22 -20 33 -23 23 -91 28 -108 7z"/>
<path d="M7560 6698 l-25 -21 25 8 c31 9 33 11 29 24 -2 5 -15 0 -29 -11z"/>
<path d="M8420 6707 c0 -8 10 -17 22 -20 30 -8 30 -5 2 16 -19 14 -24 15 -24
4z"/>
<path d="M8366 6681 c6 -7 8 -31 4 -61 -4 -33 -3 -50 4 -50 6 0 5 -4 -3 -9
-11 -7 -11 -10 1 -17 8 -5 23 -21 33 -36 9 -16 21 -28 25 -28 15 0 -2 40 -24
58 -12 10 -23 31 -25 52 -3 30 -1 33 13 21 14 -12 16 -11 10 5 -4 10 -12 25
-18 33 -9 12 -8 13 7 8 25 -9 21 -2 -10 18 -16 10 -23 12 -17 6z"/>
<path d="M7552 6626 c-47 -34 -48 -36 -9 -24 20 6 38 19 40 29 3 11 4 19 4 19
-1 -1 -17 -11 -35 -24z"/>
<path d="M8428 6624 c2 -13 8 -22 12 -19 5 3 20 1 34 -5 36 -13 32 -7 -12 23
l-39 25 5 -24z"/>
<path d="M7683 6598 c-13 -17 -23 -68 -12 -68 9 0 33 69 26 76 -2 2 -9 -1 -14
-8z"/>
<path d="M8310 6603 c0 -18 22 -73 29 -73 12 0 0 59 -15 71 -8 6 -14 7 -14 2z"/>
<path d="M7528 6562 c-43 -39 -32 -50 13 -13 19 16 31 32 27 36 -3 3 -21 -7
-40 -23z"/>
<path d="M8440 6581 c0 -11 62 -62 69 -56 2 3 -4 14 -15 26 -24 26 -54 43 -54
30z"/>
<path d="M7732 6557 c-6 -7 -7 -18 -3 -26 7 -10 10 -8 16 8 8 27 2 36 -13 18z"/>
<path d="M8260 6558 c0 -7 5 -20 10 -28 8 -12 10 -11 10 7 0 12 -4 25 -10 28
-5 3 -10 0 -10 -7z"/>
<path d="M7675 6497 c-4 -10 -5 -21 -1 -24 10 -10 18 4 13 24 -4 17 -4 17 -12
0z"/>
<path d="M8320 6485 c0 -15 4 -24 10 -20 6 3 10 12 10 20 0 8 -4 17 -10 20 -6
4 -10 -5 -10 -20z"/>
<path d="M7626 6481 c-10 -11 -16 -25 -14 -32 2 -7 12 0 22 16 21 32 16 43 -8
16z"/>
<path d="M7912 6468 c-12 -32 -13 -33 -29 -13 -13 16 -14 17 -10 3 4 -10 9
-40 13 -68 8 -59 23 -76 26 -28 1 18 2 44 3 58 0 14 4 33 9 42 4 10 6 22 4 28
-2 6 -9 -4 -16 -22z"/>
<path d="M8080 6483 c0 -12 4 -25 10 -28 5 -3 9 -18 8 -33 -3 -44 2 -106 7
-100 3 3 12 38 19 79 13 64 13 71 0 55 -13 -18 -14 -18 -28 15 -12 27 -15 29
-16 12z"/>
<path d="M8360 6494 c0 -5 9 -20 20 -34 14 -18 20 -21 20 -9 0 9 -9 24 -20 34
-11 10 -20 14 -20 9z"/>
<path d="M7537 6457 c-11 -29 -9 -43 4 -30 6 6 9 19 7 29 -3 18 -4 18 -11 1z"/>
<path d="M8460 6453 c0 -12 5 -25 10 -28 13 -8 13 15 0 35 -8 12 -10 11 -10
-7z"/>
<path d="M7491 6388 c-1 -22 2 -25 22 -20 17 5 18 7 5 10 -9 2 -19 11 -21 20
-3 10 -5 6 -6 -10z"/>
<path d="M7740 6244 c-77 -197 -75 -192 -63 -179 5 6 31 66 57 135 27 69 55
139 63 157 8 18 13 37 11 43 -2 6 -32 -64 -68 -156z"/>
<path d="M7971 6374 c-9 -26 -17 -34 -29 -29 -9 3 -13 3 -10 -1 4 -3 0 -20 -9
-37 l-15 -31 -19 35 c-10 19 -18 47 -19 63 0 28 -1 29 -14 11 -10 -14 -11 -26
-4 -47 16 -46 3 -56 -20 -13 -12 22 -21 36 -22 32 0 -5 5 -17 10 -28 8 -15 2
-49 -30 -150 -23 -72 -40 -133 -37 -135 2 -2 19 46 38 107 24 81 35 106 41 92
5 -11 6 -4 3 17 l-6 35 16 -25 c9 -14 14 -17 11 -8 -3 9 2 22 10 28 11 10 14
9 14 -6 1 -11 7 -32 15 -49 l14 -30 -6 33 c-3 17 -2 32 1 32 10 0 46 -82 45
-105 0 -16 -10 -9 -46 30 -26 28 -42 42 -36 32 7 -13 4 -44 -9 -104 -10 -47
-17 -91 -15 -97 2 -6 10 21 17 59 20 106 21 108 48 89 15 -10 22 -26 23 -52 1
-27 3 -30 6 -13 3 14 11 34 19 46 12 19 11 26 -6 60 -22 43 -26 80 -10 90 6 4
10 -6 10 -24 0 -16 5 -33 10 -36 7 -4 8 3 4 21 -5 20 -4 25 5 19 9 -5 9 -2 0
13 -11 17 -10 26 1 49 l14 28 4 -35 c1 -19 5 -42 8 -50 8 -23 24 8 24 48 0 18
4 31 9 28 4 -3 6 6 3 20 -4 22 -6 23 -17 8 -11 -16 -13 -16 -22 -1 -7 14 -11
11 -22 -19z"/>
<path d="M8200 6402 c0 -8 25 -75 54 -150 30 -75 60 -150 66 -166 6 -16 13
-27 15 -24 2 2 -27 82 -65 178 -38 96 -69 169 -70 162z"/>
<path d="M8511 6393 c-1 -16 -6 -21 -18 -17 -16 5 -16 4 0 -6 23 -15 30 -8 24
22 -4 22 -4 22 -6 1z"/>
<path d="M8137 6376 c3 -13 -1 -34 -8 -47 -15 -28 -29 -110 -18 -103 5 2 11
20 15 39 3 19 9 33 13 31 4 -3 12 13 18 34 8 33 7 42 -7 55 -16 15 -17 14 -13
-9z"/>
<path d="M8176 6325 c-10 -18 -18 -37 -18 -42 0 -18 -38 -80 -67 -107 -30 -29
-31 -29 -31 -7 0 12 9 40 21 62 18 35 19 45 8 70 -13 33 -58 66 -46 34 4 -9 3
-24 -1 -33 -5 -9 -6 -30 -2 -47 6 -29 7 -29 17 15 8 36 12 41 18 26 10 -24
-16 -102 -33 -98 -9 1 -7 -9 5 -30 10 -18 21 -44 24 -58 6 -21 7 -20 8 11 0
20 8 42 16 49 8 7 15 9 15 4 0 -5 4 -3 9 5 6 10 13 -4 21 -45 15 -77 28 -123
29 -104 0 8 -8 52 -17 97 -18 81 -18 81 4 122 l21 41 13 -45 c7 -25 15 -43 17
-41 3 3 -2 27 -12 55 -13 39 -14 55 -5 71 6 12 10 23 8 25 -2 3 -12 -11 -22
-30z"/>
<path d="M7990 6219 c0 -17 -4 -28 -10 -24 -5 3 -5 -7 1 -25 6 -16 14 -32 19
-35 14 -8 28 40 21 75 -8 45 -31 51 -31 9z"/>
<path d="M7816 6194 c-4 -14 -5 -28 -3 -31 3 -2 8 8 11 23 4 14 5 28 3 31 -3
2 -8 -8 -11 -23z"/>
<path d="M8181 6210 c0 -8 4 -24 9 -35 5 -13 9 -14 9 -5 0 8 -4 24 -9 35 -5
13 -9 14 -9 5z"/>
<path d="M8211 6184 c-1 -5 10 -41 23 -80 14 -38 25 -64 25 -58 1 5 -10 41
-23 80 -14 38 -25 64 -25 58z"/>
<path d="M7882 6130 c0 -14 2 -19 5 -12 2 6 2 18 0 25 -3 6 -5 1 -5 -13z"/>
<path d="M8122 6130 c0 -14 2 -19 5 -12 2 6 2 18 0 25 -3 6 -5 1 -5 -13z"/>
<path d="M8201 6140 c0 -8 4 -24 9 -35 5 -13 9 -14 9 -5 0 8 -4 24 -9 35 -5
13 -9 14 -9 5z"/>
<path d="M7871 6085 c-1 -11 -4 -31 -6 -45 l-6 -25 11 25 c6 13 9 33 7 45 -4
19 -4 19 -6 0z"/>
<path d="M8132 6075 c0 -16 2 -22 5 -12 2 9 2 23 0 30 -3 6 -5 -1 -5 -18z"/>
<path d="M7922 6040 c0 -19 2 -27 5 -17 2 9 2 25 0 35 -3 9 -5 1 -5 -18z"/>
<path d="M7942 6040 c0 -19 2 -27 5 -17 2 9 2 25 0 35 -3 9 -5 1 -5 -18z"/>
<path d="M8062 6040 c0 -19 2 -27 5 -17 2 9 2 25 0 35 -3 9 -5 1 -5 -18z"/>
<path d="M8082 6040 c0 -19 2 -27 5 -17 2 9 2 25 0 35 -3 9 -5 1 -5 -18z"/>
<path d="M7066 6182 c-3 -4 4 -9 15 -9 23 -2 25 3 4 10 -8 4 -16 3 -19 -1z"/>
<path d="M7100 6156 c0 -2 8 -10 18 -17 15 -13 16 -12 3 4 -13 16 -21 21 -21
13z"/>
<path d="M8919 6178 c-8 -7 -21 -22 -29 -33 -7 -11 -1 -8 14 8 15 15 32 24 38
21 7 -4 8 -2 4 4 -9 15 -9 15 -27 0z"/>
<path d="M7430 6069 c0 -6 -9 -24 -20 -39 l-21 -29 21 -11 c23 -12 55 4 44 21
-3 5 0 9 5 9 19 0 12 39 -9 50 -15 8 -20 8 -20 -1z m30 -23 c0 -3 -4 -8 -10
-11 -5 -3 -10 -1 -10 4 0 6 5 11 10 11 6 0 10 -2 10 -4z m-20 -36 c0 -5 -4
-10 -10 -10 -5 0 -10 5 -10 10 0 6 5 10 10 10 6 0 10 -4 10 -10z"/>
<path d="M8542 6057 c-7 -8 -6 -18 4 -31 8 -11 14 -28 14 -38 0 -11 5 -15 15
-12 11 5 13 10 5 19 -8 9 -8 15 0 20 5 3 13 -1 16 -9 3 -9 10 -13 15 -10 9 5
-40 74 -52 74 -4 0 -11 -6 -17 -13z m32 -22 c3 -8 1 -15 -4 -15 -6 0 -10 7
-10 15 0 8 2 15 4 15 2 0 6 -7 10 -15z"/>
<path d="M7479 6015 c-7 -19 -18 -35 -23 -35 -6 0 -5 -5 2 -12 9 -9 15 -8 27
8 16 19 16 19 10 -3 -10 -37 10 -33 32 8 23 41 13 65 -13 33 -14 -18 -15 -18
-9 3 10 37 -13 35 -26 -2z"/>
<path d="M8460 6022 c-34 -16 -35 -18 -23 -42 7 -14 13 -33 13 -42 0 -11 5
-15 14 -12 12 5 12 10 0 39 -17 40 -17 45 -5 45 5 0 15 -16 22 -35 7 -19 16
-35 19 -35 17 0 17 15 -1 45 -13 22 -16 36 -9 40 5 3 10 -2 10 -13 0 -22 37
-59 47 -48 4 4 -3 15 -16 25 -16 12 -22 24 -18 35 8 20 -7 20 -53 -2z"/>
<path d="M7548 5971 c-13 -34 -14 -41 -2 -45 9 -3 14 1 14 12 0 9 7 29 14 45
12 21 12 27 2 27 -7 0 -20 -18 -28 -39z"/>
<path d="M7600 5988 c0 -7 -7 -25 -14 -40 -8 -15 -11 -30 -6 -33 4 -3 11 7 16
23 l8 27 6 -35 6 -35 17 38 c9 20 19 37 23 37 6 0 0 -32 -12 -64 -3 -9 -1 -16
5 -16 6 0 11 10 12 23 1 20 2 19 13 -7 17 -37 29 -18 20 30 -9 49 -44 63 -61
25 l-12 -26 -1 33 c0 29 -20 49 -20 20z"/>
<path d="M8346 5944 c8 -20 13 -38 10 -41 -10 -10 -25 8 -31 37 -5 21 -13 30
-26 30 -17 0 -19 -6 -17 -45 2 -27 8 -45 15 -45 7 0 10 7 7 15 -4 8 -1 15 5
15 6 0 11 -6 11 -14 0 -12 7 -12 38 -4 47 12 60 24 44 40 -9 9 -12 8 -12 -6 0
-26 -18 -10 -25 24 -4 17 -13 30 -20 30 -12 0 -11 -6 1 -36z m-39 -16 c-3 -8
-6 -5 -6 6 -1 11 2 17 5 13 3 -3 4 -12 1 -19z"/>
<path d="M7700 5950 c0 -11 2 -20 4 -20 2 0 6 9 9 20 3 11 1 20 -4 20 -5 0 -9
-9 -9 -20z"/>
<path d="M7722 5921 c-8 -32 -7 -41 5 -45 23 -9 43 -7 43 5 0 6 -7 9 -15 5
-16 -6 -18 5 -5 44 4 14 8 19 9 13 1 -18 21 -16 21 2 0 9 -9 15 -24 15 -19 0
-25 -7 -34 -39z"/>
<path d="M8228 5953 c-12 -3 -18 -14 -18 -31 0 -36 14 -55 36 -50 20 3 33 38
15 38 -6 0 -11 -7 -11 -16 0 -8 -4 -12 -10 -9 -5 3 -10 18 -10 32 0 18 4 24
15 19 8 -3 15 -1 15 4 0 12 -12 17 -32 13z"/>
<path d="M7790 5921 c0 -16 -3 -36 -6 -45 -3 -9 -2 -16 4 -16 5 0 13 10 17 23
7 21 7 21 12 2 9 -33 53 -50 53 -20 0 8 5 15 11 15 6 0 9 -7 5 -15 -3 -9 0
-15 9 -15 10 0 14 12 12 45 -2 38 -5 45 -22 45 -15 0 -21 -7 -23 -26 -1 -14
-6 -33 -11 -42 -8 -14 -11 -12 -16 11 -4 16 -3 33 4 41 8 10 9 16 1 21 -5 3
-10 -1 -10 -9 0 -8 -5 -18 -12 -22 -8 -5 -9 0 -6 14 4 15 2 22 -8 22 -9 0 -14
-11 -14 -29z m97 -23 c-3 -7 -5 -2 -5 12 0 14 2 19 5 13 2 -7 2 -19 0 -25z"/>
<path d="M8153 5934 c-2 -7 -3 -25 -1 -41 4 -35 48 -48 48 -14 0 12 -4 21 -10
21 -5 0 -7 -7 -4 -15 4 -8 1 -15 -5 -15 -6 0 -11 13 -11 30 0 22 4 28 15 24
10 -4 13 -2 10 8 -7 18 -35 19 -42 2z"/>
<path d="M8063 5933 c-7 -2 -13 -20 -13 -39 0 -23 -4 -33 -11 -28 -6 3 -9 19
-7 35 4 29 4 29 -44 29 -39 0 -48 -3 -48 -17 0 -15 2 -16 10 -3 7 11 10 5 10
-22 0 -25 5 -38 13 -38 9 0 12 11 9 33 -3 27 0 33 17 34 18 1 21 -4 21 -33 0
-27 4 -34 20 -34 16 0 20 7 20 35 0 19 5 35 10 35 6 0 10 -16 10 -35 0 -19 4
-35 9 -35 4 0 6 12 4 28 l-4 27 16 -27 c9 -16 18 -28 20 -28 3 0 5 20 5 45 0
25 -4 45 -9 45 -4 0 -7 -12 -5 -27 l4 -28 -11 28 c-10 26 -21 31 -46 20z"/>
<path d="M7892 5745 c0 -16 2 -22 5 -12 2 9 2 23 0 30 -3 6 -5 -1 -5 -18z"/>
<path d="M8112 5745 c0 -16 2 -22 5 -12 2 9 2 23 0 30 -3 6 -5 -1 -5 -18z"/>
<path d="M4265 4985 c-5 -2 -29 -9 -52 -15 l-42 -10 19 -68 c21 -77 48 -105
89 -96 35 9 61 33 61 57 0 12 -7 47 -16 79 -16 56 -26 65 -59 53z"/>
<path d="M11743 4892 c-9 -5 14 -24 67 -57 44 -26 82 -46 84 -44 2 2 10 28 19
57 l15 52 -87 0 c-47 0 -92 -4 -98 -8z"/>
<path d="M4782 3783 c-34 -24 -62 -48 -62 -52 0 -5 20 -30 44 -56 39 -41 48
-47 73 -41 34 8 73 49 73 77 0 11 -15 42 -33 68 l-33 49 -62 -45z"/>
<path d="M5705 2843 l-35 -48 28 -22 c15 -13 46 -33 68 -45 39 -20 43 -21 67
-5 34 22 43 64 20 89 -19 21 -97 78 -107 78 -3 0 -22 -21 -41 -47z"/>
<path d="M5570 2655 c-22 -30 -40 -56 -40 -59 0 -14 117 -86 140 -86 48 0 82
56 64 104 -5 14 -106 96 -118 96 -3 0 -24 -25 -46 -55z"/>
<path d="M9825 2618 c-51 -28 -71 -104 -45 -173 21 -55 80 -131 118 -153 58
-32 97 -29 138 12 28 28 34 41 34 78 0 45 -32 124 -72 178 -45 61 -121 87
-173 58z"/>
<path d="M9168 2332 c-27 -8 -48 -20 -48 -26 0 -6 27 -83 59 -171 57 -154 60
-160 86 -158 41 3 98 35 115 65 12 23 12 36 2 88 -18 87 -53 161 -91 193 -37
30 -56 32 -123 9z"/>
</g>
</svg>
