<?xml version="1.0" standalone="no"?>
<!DOCTYPE svg PUBLIC "-//W3C//DTD SVG 20010904//EN"
 "http://www.w3.org/TR/2001/REC-SVG-20010904/DTD/svg10.dtd">
<svg version="1.0" xmlns="http://www.w3.org/2000/svg"
 width="1600.000000pt" height="551.000000pt" viewBox="0 0 1600.000000 551.000000"
 preserveAspectRatio="xMidYMid meet">

<g transform="translate(0.000000,551.000000) scale(0.100000,-0.100000)"
fill="#000000" stroke="none">
<path d="M7972 5494 c-1523 -71 -2937 -322 -3902 -691 -925 -354 -1423 -802
-1482 -1333 -28 -258 63 -553 265 -856 82 -124 337 -428 337 -403 0 3 -18 41
-40 86 -82 167 -122 325 -123 488 -2 129 18 229 69 346 308 722 1710 1199
3847 1311 301 15 1176 15 1476 0 1171 -62 2002 -235 2656 -552 550 -268 935
-632 1046 -990 30 -97 33 -264 5 -355 -142 -476 -827 -867 -2061 -1179 -463
-116 -1079 -232 -1715 -320 -356 -50 -367 -54 -140 -49 682 14 1177 54 1810
148 270 40 654 118 974 197 1410 348 2512 965 2812 1573 64 129 84 209 84 331
0 122 -19 193 -92 339 -197 392 -614 779 -1208 1120 -692 397 -1583 652 -2655
760 -440 44 -1357 58 -1963 29z"/>
<path d="M8323 3733 c9 -2 23 -2 30 0 6 3 -1 5 -18 5 -16 0 -22 -2 -12 -5z"/>
<path d="M8530 3709 c410 -57 774 -157 1046 -288 172 -83 284 -160 394 -270
143 -144 200 -266 200 -431 0 -103 -18 -180 -66 -278 -195 -399 -803 -771
-1714 -1047 -542 -164 -1258 -302 -1970 -379 -220 -24 -220 -25 0 -20 459 9
1040 57 1515 124 1665 238 2799 785 2922 1410 38 189 -30 366 -205 538 -338
330 -1061 559 -2047 647 -212 19 -241 17 -75 -6z"/>
<path d="M4431 3491 c-9 -16 -645 -1462 -676 -1538 l-14 -33 140 0 140 0 15
35 c8 20 26 61 40 93 l25 57 24 -49 c48 -100 130 -153 254 -163 292 -24 616
254 740 635 93 284 53 468 -119 546 -35 16 -66 20 -140 20 -107 0 -167 -16
-269 -71 -35 -18 -65 -32 -67 -30 -3 2 45 116 106 253 60 137 110 252 110 257
0 4 -67 7 -150 7 -135 0 -150 -2 -159 -19z m311 -621 c43 -12 91 -63 108 -116
49 -148 -138 -509 -308 -595 -68 -34 -160 -38 -207 -9 -78 48 -99 157 -56 294
65 208 202 377 342 421 54 17 74 18 121 5z"/>
<path d="M6790 2724 c-190 -432 -346 -790 -348 -795 -2 -5 61 -9 150 -9 l154
0 74 172 75 171 125 93 125 92 7 -56 c3 -32 12 -150 19 -264 l12 -208 153 0
c85 0 154 2 154 5 0 3 -16 163 -36 356 -19 193 -34 357 -32 365 2 7 126 106
277 219 l274 205 -201 0 -201 0 -239 -190 c-132 -104 -242 -190 -245 -190 -3
0 76 183 174 406 99 223 179 408 179 410 0 2 -69 4 -152 4 l-153 0 -345 -786z"/>
<path d="M6116 3089 c-55 -11 -156 -55 -227 -99 -54 -33 -59 -28 -29 30 11 22
20 42 20 45 0 3 -66 4 -146 3 l-146 -3 -344 -784 c-189 -432 -344 -788 -344
-793 0 -5 68 -7 152 -6 l151 3 119 270 c65 149 123 281 128 294 11 23 11 23
39 -20 55 -86 126 -126 240 -136 366 -31 763 398 788 852 4 76 2 114 -10 156
-22 73 -80 139 -148 168 -60 26 -169 35 -243 20z m18 -237 c114 -67 99 -251
-38 -485 -90 -153 -202 -237 -316 -237 -135 0 -198 117 -155 285 18 69 81 206
123 268 113 163 275 234 386 169z"/>
<path d="M8700 3090 c-66 -12 -146 -45 -220 -89 -36 -22 -66 -38 -68 -36 -2 2
6 21 17 44 12 22 21 45 21 51 0 6 -51 10 -143 10 l-143 0 -343 -782 c-189
-431 -345 -789 -348 -795 -4 -10 30 -13 148 -13 l154 0 130 296 c105 242 131
294 140 279 36 -62 76 -103 130 -130 55 -28 66 -30 164 -29 118 1 190 21 298
85 87 51 227 191 294 293 101 153 161 346 161 514 0 84 -3 100 -31 157 -32 65
-73 104 -136 131 -43 18 -165 26 -225 14z m-28 -220 c121 -34 146 -181 63
-373 -101 -235 -239 -367 -385 -367 -155 0 -208 157 -124 367 80 200 192 326
327 368 52 17 72 18 119 5z"/>
<path d="M3570 454 c-49 -21 -70 -42 -96 -99 -56 -118 -15 -271 86 -323 59
-31 156 -27 221 9 l44 24 3 98 3 98 -88 -3 -88 -3 0 -35 c0 -35 0 -35 48 -38
45 -3 47 -5 47 -32 0 -37 -40 -60 -103 -60 -39 0 -49 5 -75 34 -61 69 -50 216
19 251 15 8 46 15 68 15 34 0 45 -6 67 -34 25 -31 29 -33 65 -24 36 10 37 12
28 37 -33 85 -153 127 -249 85z"/>
<path d="M5283 452 c-62 -33 -82 -92 -54 -160 16 -39 40 -55 126 -81 80 -25
95 -35 95 -66 0 -33 -36 -60 -80 -60 -43 0 -75 23 -85 62 -5 23 -9 24 -43 18
-20 -4 -39 -9 -41 -11 -2 -2 4 -24 13 -49 24 -62 64 -88 141 -93 112 -7 175
43 175 140 0 70 -36 107 -134 138 -88 27 -113 48 -97 78 23 44 111 35 133 -13
12 -26 49 -34 77 -16 20 13 6 59 -29 91 -46 43 -139 53 -197 22z"/>
<path d="M8740 448 c-69 -36 -102 -91 -108 -181 -5 -84 7 -134 46 -186 55 -74
178 -92 278 -40 l49 25 3 97 3 98 -88 -3 -88 -3 -3 -37 -3 -38 50 0 c50 0 51
-1 51 -30 0 -23 -7 -33 -30 -45 -46 -24 -112 -20 -143 9 -45 42 -59 134 -31
205 20 50 51 71 104 71 33 0 48 -6 72 -30 30 -30 61 -37 88 -20 13 8 12 14 -5
46 -30 56 -63 75 -136 81 -53 4 -72 1 -109 -19z"/>
<path d="M14085 451 c-81 -37 -115 -101 -115 -213 1 -112 38 -177 122 -213 67
-28 149 -17 226 30 l33 20 -3 90 -3 90 -85 0 -85 0 -3 -37 -3 -38 50 0 c47 0
51 -2 51 -24 0 -36 -44 -66 -97 -66 -59 0 -81 13 -104 63 -35 77 -19 185 32
221 37 25 105 21 134 -9 14 -13 25 -28 25 -33 0 -10 66 1 78 13 4 3 -2 23 -13
43 -39 73 -154 103 -240 63z"/>
<path d="M40 240 l0 -220 134 0 c130 0 136 1 165 26 34 28 53 82 44 125 -6 30
-47 79 -67 79 -6 0 -3 5 7 11 57 33 53 143 -6 179 -27 17 -51 20 -154 20
l-123 0 0 -220z m231 129 c20 -20 19 -56 -4 -70 -14 -10 -126 -21 -137 -14
-11 7 -14 88 -3 98 3 4 33 7 65 7 45 0 63 -5 79 -21z m7 -175 c27 -19 29 -64
3 -88 -15 -13 -34 -16 -87 -14 l-69 3 -3 58 -3 57 68 0 c46 0 76 -5 91 -16z"/>
<path d="M501 252 c-41 -114 -76 -213 -79 -219 -3 -9 9 -13 40 -13 44 0 45 0
59 48 l15 47 83 0 83 0 18 -45 c17 -43 19 -45 63 -48 l45 -3 -82 220 -81 221
-45 0 -45 0 -74 -208z m148 19 c12 -35 21 -68 21 -73 0 -4 -22 -8 -50 -8 -32
0 -50 4 -50 12 0 25 44 148 51 141 4 -5 17 -37 28 -72z"/>
<path d="M870 240 l0 -220 110 0 c118 0 147 8 186 52 35 39 49 88 48 173 0 94
-26 154 -83 192 -30 21 -46 23 -147 23 l-114 0 0 -220z m204 136 c44 -18 59
-64 54 -163 -3 -67 -6 -78 -31 -99 -22 -19 -40 -24 -83 -24 l-54 0 0 150 0
150 40 0 c22 0 56 -6 74 -14z"/>
<path d="M1330 249 c-41 -116 -76 -215 -78 -220 -2 -5 16 -9 40 -9 44 0 45 0
59 48 l15 47 83 0 83 0 18 -45 c17 -43 19 -45 63 -48 l45 -3 -82 221 -81 220
-45 0 -45 0 -75 -211z m148 33 c12 -38 22 -74 22 -80 0 -8 -18 -12 -50 -12
-32 0 -50 4 -50 12 0 19 43 148 50 148 3 0 16 -31 28 -68z"/>
<path d="M1708 240 l-3 -220 37 0 37 0 3 143 3 142 80 -143 80 -142 42 0 43 0
0 220 0 220 -35 0 -35 0 -2 -127 c0 -71 -1 -134 -1 -140 1 -31 -19 -4 -91 127
l-78 140 -39 0 -38 0 -3 -220z"/>
<path d="M2280 240 l0 -220 40 0 39 0 3 82 3 83 75 5 c41 3 85 11 97 18 76 43
67 212 -13 242 -14 6 -75 10 -135 10 l-109 0 0 -220z m193 139 c28 -15 37 -28
37 -56 0 -41 -34 -63 -95 -63 l-55 0 0 65 0 65 46 0 c25 0 55 -5 67 -11z"/>
<path d="M2660 240 l0 -220 160 0 160 0 0 35 0 35 -115 0 -115 0 0 60 0 60
100 0 100 0 0 40 0 40 -102 0 -103 0 3 50 4 50 109 0 109 0 0 35 0 35 -155 0
-155 0 0 -220z"/>
<path d="M3050 241 l0 -221 35 0 35 0 0 142 c0 89 4 138 9 132 6 -5 43 -67 83
-139 l73 -130 43 -3 42 -3 0 220 0 221 -35 0 -34 0 -3 -147 -3 -147 -81 144
-81 145 -41 3 -42 3 0 -220z"/>
<path d="M4025 450 c-4 -6 -19 -47 -35 -93 -15 -45 -49 -139 -74 -209 l-46
-128 44 0 c44 0 44 0 61 50 l17 51 81 -3 81 -3 17 -45 c16 -44 18 -45 63 -48
l46 -3 -18 48 c-11 26 -47 126 -82 221 l-63 172 -43 0 c-24 0 -46 -5 -49 -10z
m95 -247 c0 -9 -16 -13 -50 -13 -27 0 -50 4 -50 8 0 8 32 108 46 142 6 14 54
-108 54 -137z"/>
<path d="M4260 447 c0 -7 20 -104 45 -216 25 -112 45 -205 45 -208 0 -2 21 -3
47 -1 l48 3 37 153 c20 85 39 156 41 158 3 3 22 -67 43 -155 l38 -161 45 0 46
0 44 203 c25 111 47 210 49 220 4 14 -3 17 -36 17 l-41 0 -15 -75 c-9 -41 -23
-109 -32 -150 -9 -41 -17 -75 -18 -75 -2 0 -18 68 -36 150 l-34 150 -50 0 -51
0 -34 -145 c-19 -80 -38 -142 -41 -138 -4 5 -15 48 -24 98 -39 200 -33 185
-77 185 -25 0 -39 -5 -39 -13z"/>
<path d="M4847 248 c-43 -117 -77 -217 -77 -221 0 -5 19 -7 41 -5 39 3 42 6
58 48 l17 45 81 3 82 3 18 -51 c18 -49 18 -50 60 -50 24 0 43 3 43 8 0 4 -35
101 -78 217 l-78 210 -45 3 -46 3 -76 -213z m154 15 c10 -31 19 -60 19 -65 0
-4 -25 -8 -56 -8 -41 0 -55 3 -52 13 3 6 15 43 28 81 25 77 27 76 61 -21z"/>
<path d="M5665 298 c-32 -90 -69 -189 -81 -221 l-23 -58 47 3 c46 3 46 4 61
51 l15 47 82 0 82 0 18 -50 c18 -50 18 -50 62 -50 40 0 43 2 37 21 -4 12 -40
110 -79 218 l-73 196 -45 3 -45 3 -58 -163z m123 -5 c39 -111 41 -103 -23
-103 -42 0 -56 3 -53 13 3 6 15 42 27 80 13 37 24 67 25 67 2 0 13 -26 24 -57z"/>
<path d="M6020 240 l0 -220 40 0 39 0 3 137 3 138 78 -138 78 -137 45 0 44 0
0 220 0 220 -40 0 -40 0 0 -142 c-1 -167 5 -168 -98 19 l-67 123 -42 0 -43 0
0 -220z"/>
<path d="M6600 240 l0 -220 40 0 40 0 0 68 c0 64 2 70 34 101 l34 33 40 -73
c22 -41 47 -86 56 -101 13 -25 21 -28 66 -28 59 0 63 -14 -36 151 -35 59 -64
111 -64 116 0 5 26 38 57 74 97 110 94 99 31 99 l-54 0 -80 -95 -79 -96 -3 96
-3 95 -39 0 -40 0 0 -220z"/>
<path d="M7010 240 l0 -220 155 0 155 0 0 35 0 35 -115 0 -115 0 0 60 0 60
105 0 105 0 0 40 0 40 -105 0 -105 0 0 50 0 50 115 0 115 0 0 35 0 35 -155 0
-155 0 0 -220z"/>
<path d="M7393 284 c7 -197 15 -225 77 -256 44 -22 131 -23 175 -2 64 30 70
48 73 252 l4 182 -41 0 -41 0 0 -157 c0 -195 -5 -207 -77 -211 -79 -5 -83 6
-83 205 l0 163 -47 0 -46 0 6 -176z"/>
<path d="M7919 433 c-11 -27 -90 -247 -130 -360 l-18 -53 43 0 c42 0 42 1 60
50 l18 51 81 -3 81 -3 17 -45 c16 -44 18 -45 63 -48 l46 -3 -18 48 c-11 26
-47 126 -82 221 l-63 172 -44 0 c-38 0 -45 -3 -54 -27z m83 -163 l26 -80 -55
0 c-48 0 -55 2 -50 18 23 83 43 142 47 142 3 0 18 -36 32 -80z"/>
<path d="M8230 240 l0 -220 35 0 34 0 3 143 3 142 80 -142 80 -143 43 0 42 0
0 220 0 220 -35 0 -35 0 0 -140 c0 -77 -3 -140 -7 -140 -5 0 -43 63 -86 140
l-79 140 -39 0 -39 0 0 -220z"/>
<path d="M9131 252 c-41 -114 -76 -213 -79 -219 -3 -9 9 -13 40 -13 44 0 45 0
59 48 l15 47 83 0 83 0 18 -45 c17 -43 19 -45 63 -48 l45 -3 -82 221 -81 220
-45 0 -45 0 -74 -208z m147 30 c12 -38 22 -74 22 -80 0 -8 -18 -12 -50 -12
-32 0 -50 4 -50 12 0 19 43 148 50 148 3 0 16 -31 28 -68z"/>
<path d="M9505 240 l0 -220 37 0 37 0 3 142 3 142 80 -142 80 -142 42 0 43 0
0 220 0 220 -41 0 -40 0 3 -140 c2 -77 1 -140 -2 -140 -3 0 -41 63 -85 140
l-79 140 -40 0 -41 0 0 -220z"/>
<path d="M10080 241 l0 -221 114 0 c101 0 117 2 147 23 55 36 74 86 74 197 0
77 -4 103 -21 134 -37 71 -59 81 -195 84 l-119 4 0 -221z m226 116 c27 -32 38
-92 29 -163 -10 -79 -28 -97 -109 -102 l-66 -4 0 152 0 152 62 -4 c50 -4 65
-9 84 -31z"/>
<path d="M10537 248 c-43 -117 -77 -217 -77 -221 0 -5 19 -7 41 -5 39 3 42 6
58 48 l17 45 81 3 81 3 18 -51 c18 -50 18 -50 62 -50 38 0 43 2 37 20 -3 10
-39 108 -79 217 l-74 198 -44 3 -45 3 -76 -213z m153 14 c11 -31 20 -60 20
-64 0 -5 -25 -8 -56 -8 -41 0 -55 3 -52 13 3 6 15 43 28 81 25 77 28 76 60
-22z"/>
<path d="M10910 240 l0 -220 40 0 40 0 0 143 0 142 81 -143 80 -142 45 0 44 0
0 220 0 220 -40 0 -40 0 0 -147 0 -148 -83 147 -82 148 -42 0 -43 0 0 -220z"/>
<path d="M11490 240 l0 -220 40 0 39 0 3 82 3 83 77 5 c71 5 81 8 109 37 59
59 47 183 -22 218 -20 11 -61 15 -139 15 l-110 0 0 -220z m198 134 c15 -10 22
-25 22 -49 0 -44 -29 -65 -92 -65 l-48 0 0 65 0 65 48 0 c27 0 57 -7 70 -16z"/>
<path d="M11870 240 l0 -220 155 0 155 0 0 35 0 35 -115 0 -115 0 0 60 0 60
105 0 105 0 0 40 0 40 -105 0 -105 0 0 50 0 50 110 0 110 0 0 35 0 35 -150 0
-150 0 0 -220z"/>
<path d="M12250 240 l0 -220 40 0 40 0 1 168 1 167 32 -141 c18 -77 36 -152
40 -167 6 -24 11 -27 46 -27 45 0 40 -13 86 195 l29 130 3 -162 2 -163 40 0
40 0 0 220 0 220 -63 0 -63 0 -35 -145 c-18 -79 -37 -141 -40 -137 -4 4 -22
69 -40 145 l-33 137 -63 0 -63 0 0 -220z"/>
<path d="M12730 240 l0 -220 136 0 136 0 32 32 c58 59 53 155 -9 188 -24 13
-24 14 -5 27 27 19 41 75 29 119 -17 60 -53 74 -196 74 l-123 0 0 -220z m230
130 c43 -43 16 -74 -69 -84 -34 -4 -66 -4 -71 -1 -11 7 -14 88 -3 98 3 4 33 7
65 7 45 0 63 -5 78 -20z m8 -176 c27 -19 29 -64 3 -88 -15 -13 -34 -16 -87
-14 l-69 3 -3 58 -3 57 68 0 c46 0 76 -5 91 -16z"/>
<path d="M13191 252 c-41 -114 -76 -213 -78 -219 -4 -9 8 -13 39 -13 44 0 45
0 59 48 l15 47 83 0 83 0 17 -45 c16 -44 18 -45 62 -48 l47 -3 -82 220 -81
221 -45 0 -45 0 -74 -208z m147 22 c12 -34 22 -66 22 -73 0 -7 -19 -11 -50
-11 -32 0 -50 4 -50 12 0 24 44 148 50 141 4 -5 16 -35 28 -69z"/>
<path d="M13560 240 l0 -220 40 0 39 0 3 141 3 141 80 -141 80 -141 43 0 42 0
0 220 0 220 -40 0 -39 0 -3 -141 -3 -142 -79 142 -80 141 -43 0 -43 0 0 -220z"/>
<path d="M14430 287 c0 -195 8 -225 71 -259 44 -23 132 -24 179 0 61 30 70 63
70 260 l0 172 -40 0 -40 0 0 -163 c0 -193 -5 -207 -76 -207 -31 0 -50 6 -64
20 -18 18 -20 33 -20 185 l0 165 -40 0 -40 0 0 -173z"/>
<path d="M14840 240 l0 -220 40 0 39 0 3 140 3 140 79 -140 79 -140 43 0 44 0
0 220 0 220 -40 0 -39 0 -3 -142 -3 -143 -80 142 -80 143 -42 0 -43 0 0 -220z"/>
<path d="M15301 253 c-41 -115 -76 -214 -79 -220 -3 -9 9 -13 40 -13 44 0 45
0 59 48 l15 47 84 0 84 0 15 -47 15 -48 46 0 47 0 -74 197 c-41 109 -76 208
-79 220 -5 20 -13 23 -53 23 l-47 0 -73 -207z m148 18 c11 -36 21 -69 21 -73
0 -4 -22 -8 -50 -8 -32 0 -50 4 -50 12 0 25 44 148 51 141 3 -5 16 -37 28 -72z"/>
<path d="M15670 240 l0 -220 40 0 39 0 3 141 3 140 79 -140 80 -141 43 0 43 0
0 220 0 220 -40 0 -39 0 -3 -141 -3 -141 -80 141 -80 141 -42 0 -43 0 0 -220z"/>
</g>
</svg>
