<?xml version="1.0" standalone="no"?>
<!DOCTYPE svg PUBLIC "-//W3C//DTD SVG 20010904//EN"
 "http://www.w3.org/TR/2001/REC-SVG-20010904/DTD/svg10.dtd">
<svg version="1.0" xmlns="http://www.w3.org/2000/svg"
 width="640.000000pt" height="396.000000pt" viewBox="0 0 640.000000 396.000000"
 preserveAspectRatio="xMidYMid meet">

<g transform="translate(0.000000,396.000000) scale(0.100000,-0.100000)"
fill="#000000" stroke="none">
<path d="M2950 3621 c-217 -46 -423 -137 -581 -255 -157 -119 -323 -315 -409
-486 -42 -82 -97 -247 -122 -364 -30 -141 -30 -368 1 -514 33 -157 67 -257
128 -372 208 -394 588 -673 1002 -735 162 -25 294 -19 466 21 176 42 296 150
312 281 11 101 -33 177 -136 232 -144 77 -308 89 -421 31 -91 -46 -125 -130
-75 -184 33 -35 50 -34 30 4 -22 42 -19 54 19 88 43 38 96 47 176 31 108 -21
160 -76 160 -169 0 -71 -34 -128 -105 -175 -102 -69 -153 -80 -355 -80 -156 0
-183 3 -250 24 -218 68 -427 226 -531 401 -203 343 -139 808 167 1210 183 241
459 433 786 548 96 34 287 79 397 93 149 19 450 10 556 -17 30 -8 -80 94 -173
160 -152 107 -395 205 -587 236 -100 16 -358 11 -455 -9z"/>
<path d="M3715 3155 c-315 -47 -625 -164 -865 -325 -158 -107 -327 -283 -444
-462 -67 -104 -107 -191 -144 -312 -24 -82 -27 -107 -27 -246 0 -150 1 -158
33 -250 47 -135 94 -213 181 -300 119 -120 245 -195 393 -235 93 -25 255 -35
325 -20 122 28 211 71 256 125 46 54 49 122 7 179 -66 94 -228 102 -261 12 -9
-23 -9 -23 22 3 42 36 88 35 128 -3 38 -35 40 -71 8 -123 -44 -73 -122 -108
-241 -108 -117 0 -199 33 -331 132 -62 46 -99 92 -133 166 -24 51 -27 69 -27
162 0 76 5 120 19 159 75 218 216 400 410 530 132 89 302 155 501 195 245 48
407 57 605 31 190 -24 332 -74 413 -145 19 -16 36 -30 39 -30 8 0 -11 178 -26
245 -29 126 -77 258 -135 369 -88 171 -138 209 -318 245 -117 24 -251 26 -388
6z"/>
<path d="M3080 750 c-47 -8 -73 -23 -104 -60 -82 -98 -51 -301 54 -355 37 -19
132 -19 168 -1 68 36 102 103 102 206 0 51 -6 82 -20 109 -23 46 -71 89 -108
97 -49 10 -57 10 -92 4z m106 -97 c32 -34 37 -59 32 -140 -4 -59 -7 -69 -36
-94 -43 -39 -90 -39 -134 0 -27 24 -32 36 -36 88 -8 110 32 173 110 173 29 0
45 -7 64 -27z"/>
<path d="M1356 590 c-4 -87 -4 -184 -1 -215 7 -55 8 -55 41 -55 l34 0 0 68 c0
64 2 70 34 101 l34 33 31 -59 c18 -32 41 -77 51 -100 19 -42 20 -43 69 -43 28
0 51 2 51 4 0 2 -34 60 -75 130 l-76 125 70 83 70 83 -47 3 c-44 3 -48 1 -89
-45 -24 -26 -57 -67 -75 -90 -17 -24 -35 -43 -40 -43 -4 0 -8 41 -8 90 l0 90
-34 0 -33 0 -7 -160z"/>
<path d="M1746 590 c-4 -87 -4 -184 -1 -215 l7 -56 142 3 141 3 3 32 3 32
-108 3 -108 3 -3 57 -3 57 98 3 98 3 0 30 0 30 -97 3 -98 3 0 49 0 50 105 0
105 0 0 35 0 35 -139 0 -138 0 -7 -160z"/>
<path d="M2105 586 c-4 -91 -4 -187 0 -215 6 -48 9 -51 36 -51 33 0 31 -15 30
203 0 59 3 107 7 107 4 0 16 -39 26 -87 10 -49 25 -118 33 -155 l15 -68 38 0
37 0 33 155 c18 85 37 155 42 155 4 0 5 -40 2 -88 -4 -49 -4 -118 0 -155 7
-65 8 -67 36 -67 26 0 28 3 35 55 3 31 3 128 -1 216 l-7 160 -56 -3 -55 -3
-17 -75 c-9 -41 -22 -103 -29 -137 -7 -35 -16 -63 -20 -63 -4 0 -17 47 -30
105 -39 187 -33 175 -94 175 l-54 0 -7 -164z"/>
<path d="M2556 590 c-4 -87 -4 -184 -1 -215 7 -55 8 -55 41 -55 l34 0 0 68 c0
64 2 70 34 101 l33 32 25 -43 c14 -24 28 -51 31 -60 3 -9 17 -35 32 -57 23
-38 29 -41 70 -41 25 0 45 2 45 4 0 7 -130 228 -142 243 -7 9 4 29 40 70 27
32 59 67 71 77 32 29 26 36 -27 36 l-48 0 -75 -90 c-40 -49 -77 -90 -81 -90
-5 0 -8 41 -8 90 l0 90 -34 0 -33 0 -7 -160z"/>
<path d="M3369 728 c0 -13 0 -108 0 -213 l0 -190 35 -3 34 -3 0 118 c0 65 1
134 2 153 l2 35 9 -30 c5 -16 21 -85 36 -153 l26 -123 36 3 c35 3 36 4 53 68
10 36 25 99 34 140 8 41 20 80 25 85 7 7 10 4 9 -10 -1 -11 -2 -80 -1 -152 l1
-133 35 0 35 0 0 215 0 215 -59 0 c-48 0 -61 -3 -64 -17 -3 -10 -18 -73 -33
-140 -15 -68 -31 -120 -34 -115 -4 4 -12 32 -19 62 -6 30 -21 90 -32 133 l-21
77 -54 0 c-49 0 -54 -2 -55 -22z"/>
<path d="M3813 535 l2 -215 38 0 37 0 0 215 0 215 -40 0 -40 0 3 -215z"/>
<path d="M3970 536 l0 -216 35 0 35 0 0 138 0 137 33 -52 c17 -28 52 -90 77
-137 44 -84 46 -86 83 -86 l37 0 0 215 0 215 -35 0 -34 0 -3 -139 -3 -139 -75
137 c-75 134 -76 136 -113 139 l-37 3 0 -215z"/>
<path d="M4360 535 l0 -215 35 0 34 0 3 93 3 92 80 1 80 0 3 32 3 31 -83 3
-83 3 0 50 0 50 93 3 92 3 0 34 0 35 -130 0 -130 0 0 -215z"/>
<path d="M4764 731 c-66 -40 -102 -133 -91 -237 7 -68 29 -108 79 -144 36 -26
49 -30 110 -30 68 0 68 0 117 48 41 39 51 56 61 104 20 99 -3 182 -67 238 -44
38 -49 40 -112 40 -47 0 -75 -5 -97 -19z m157 -72 c35 -25 53 -85 44 -148 -13
-87 -43 -121 -107 -121 -66 0 -108 57 -108 145 0 119 88 183 171 124z"/>
</g>
</svg>
